<svg width="90" height="90" viewBox="0 0 90 90" fill="none" xmlns="http://www.w3.org/2000/svg">
<g filter="url(#filter0_d_274:105)">
<rect x="20" y="10.0001" width="50" height="50" rx="15" fill="#FAF3D8"/>
</g>
<path fill-rule="evenodd" clip-rule="evenodd" d="M40.2183 23.334H51.1138C55.0817 23.334 57.3217 25.5845 57.3333 29.5523V40.449C57.3333 44.4157 55.0817 46.6673 51.1138 46.6673H40.2183C36.2505 46.6673 34 44.4157 34 40.449V29.5523C34 25.5845 36.2505 23.334 40.2183 23.334ZM45.7235 41.8372C46.2263 41.8372 46.6451 41.4638 46.6918 40.9622V29.0738C46.7385 28.7122 46.5646 28.3493 46.2496 28.1522C45.9218 27.9538 45.5251 27.9538 45.2113 28.1522C44.8951 28.3493 44.7213 28.7122 44.7551 29.0738V40.9622C44.8146 41.4638 45.2335 41.8372 45.7235 41.8372ZM51.092 41.8375C51.582 41.8375 52.0009 41.4642 52.0604 40.9625V37.1358C52.0942 36.7613 51.9204 36.4125 51.6042 36.2142C51.2904 36.0158 50.8937 36.0158 50.567 36.2142C50.2509 36.4125 50.077 36.7613 50.1237 37.1358V40.9625C50.1704 41.4642 50.5892 41.8375 51.092 41.8375ZM41.2554 40.9622C41.2087 41.4638 40.7899 41.8372 40.287 41.8372C39.7854 41.8372 39.3654 41.4638 39.3199 40.9622V32.9005C39.2849 32.5377 39.4587 32.1772 39.7749 31.9788C40.0887 31.7805 40.4865 31.7805 40.8015 31.9788C41.1154 32.1772 41.2915 32.5377 41.2554 32.9005V40.9622Z" fill="#FFCF00"/>
<defs>
<filter id="filter0_d_274:105" x="0" y="0.00012207" width="90" height="90" filterUnits="userSpaceOnUse" color-interpolation-filters="sRGB">
<feFlood flood-opacity="0" result="BackgroundImageFix"/>
<feColorMatrix in="SourceAlpha" type="matrix" values="0 0 0 0 0 0 0 0 0 0 0 0 0 0 0 0 0 0 127 0" result="hardAlpha"/>
<feOffset dy="10"/>
<feGaussianBlur stdDeviation="10"/>
<feColorMatrix type="matrix" values="0 0 0 0 0.745833 0 0 0 0 0.649564 0 0 0 0 0.450608 0 0 0 0.05 0"/>
<feBlend mode="normal" in2="BackgroundImageFix" result="effect1_dropShadow_274:105"/>
<feBlend mode="normal" in="SourceGraphic" in2="effect1_dropShadow_274:105" result="shape"/>
</filter>
</defs>
</svg>
