<svg width="90" height="90" viewBox="0 0 90 90" fill="none" xmlns="http://www.w3.org/2000/svg">
<g filter="url(#filter0_d_94:483)">
<rect x="20" y="10.0011" width="50" height="50" rx="15" fill="#E7F2EF"/>
</g>
<path fill-rule="evenodd" clip-rule="evenodd" d="M54.7987 31.6704L55.639 32.5104C56.3043 33.1637 56.6661 34.0504 56.6661 34.9837C56.6777 35.917 56.3159 36.8049 55.6624 37.4687C55.6546 37.4773 55.6468 37.4848 55.639 37.4923C55.6351 37.4961 55.6312 37.4998 55.6274 37.5037L54.7987 38.332C54.4719 38.6587 54.2852 39.102 54.2852 39.5699V40.7704C54.2852 42.707 52.7096 44.2832 50.7723 44.2832H49.5702C49.1033 44.2832 48.6598 44.4687 48.333 44.7954L47.4927 45.6354C46.8042 46.3249 45.9055 46.662 45.0068 46.662C44.1082 46.662 43.2095 46.3249 42.5209 45.6482L41.669 44.7954C41.3422 44.4687 40.8987 44.2832 40.4318 44.2832H39.2297C37.2924 44.2832 35.7168 42.707 35.7168 40.7704V39.5699C35.7168 39.102 35.5301 38.6587 35.2033 38.3204L34.363 37.492C32.9975 36.1282 32.9858 33.8987 34.3513 32.5232L35.2033 31.6704C35.5301 31.3437 35.7168 30.9004 35.7168 30.422V29.232C35.7168 27.2954 37.2924 25.7215 39.2297 25.7215H40.4318C40.8987 25.7215 41.3422 25.5337 41.669 25.207L42.5093 24.367C43.8748 22.9915 46.1039 22.9915 47.4811 24.3565L48.333 25.207C48.6598 25.5337 49.1033 25.7215 49.5702 25.7215H50.7723C52.7096 25.7215 54.2852 27.2954 54.2852 29.232V30.4349C54.2852 30.9004 54.4719 31.3437 54.7987 31.6704ZM41.9959 39.0205C42.276 39.0205 42.5327 38.9155 42.7195 38.7171L48.7183 32.7216C49.1151 32.325 49.1151 31.6705 48.7183 31.2738C48.3215 30.8783 47.6796 30.8783 47.2828 31.2738L41.2839 37.2705C40.8871 37.6671 40.8871 38.3205 41.2839 38.7171C41.4707 38.9155 41.7274 39.0205 41.9959 39.0205ZM46.9795 37.9936C46.9795 38.5653 47.4347 39.0203 48.0065 39.0203C48.5667 39.0203 49.0219 38.5653 49.0219 37.9936C49.0219 37.4348 48.5667 36.9786 48.0065 36.9786C47.4347 36.9786 46.9795 37.4348 46.9795 37.9936ZM42.0075 30.9821C42.5677 30.9821 43.0229 31.4371 43.0229 31.9971C43.0229 32.5699 42.5677 33.0237 42.0075 33.0237C41.4473 33.0237 40.9805 32.5699 40.9805 31.9971C40.9805 31.4371 41.4473 30.9821 42.0075 30.9821Z" fill="#51A690"/>
<defs>
<filter id="filter0_d_94:483" x="0" y="0.00109863" width="90" height="90" filterUnits="userSpaceOnUse" color-interpolation-filters="sRGB">
<feFlood flood-opacity="0" result="BackgroundImageFix"/>
<feColorMatrix in="SourceAlpha" type="matrix" values="0 0 0 0 0 0 0 0 0 0 0 0 0 0 0 0 0 0 127 0" result="hardAlpha"/>
<feOffset dy="10"/>
<feGaussianBlur stdDeviation="10"/>
<feColorMatrix type="matrix" values="0 0 0 0 0.0235294 0 0 0 0 0.301961 0 0 0 0 0.227451 0 0 0 0.03 0"/>
<feBlend mode="normal" in2="BackgroundImageFix" result="effect1_dropShadow_94:483"/>
<feBlend mode="normal" in="SourceGraphic" in2="effect1_dropShadow_94:483" result="shape"/>
</filter>
</defs>
</svg>
