<svg id="Layer_1" data-name="Layer 1" xmlns="http://www.w3.org/2000/svg" viewBox="0 0 90 90"><defs><style>.cls-1{fill:#ffe7db;}.cls-2{fill:#fead86;fill-rule:evenodd;}</style></defs><title>Artboard 1</title><rect class="cls-1" x="0.75" y="0.84" width="88.75" height="88.75" rx="26.62"/><path class="cls-2" d="M53.44,37.41a8.72,8.72,0,1,1-8.72-8.77A8.71,8.71,0,0,1,53.44,37.41ZM44.72,61.78c-7.11,0-13.17-1.13-13.17-5.64s6-5.67,13.17-5.67,13.17,1.12,13.17,5.63S51.86,61.78,44.72,61.78ZM57.16,37.57a11.92,11.92,0,0,1-2,6.71.33.33,0,0,0,.22.5,6.65,6.65,0,0,0,1,.1,7.28,7.28,0,0,0,7.3-5.43,7.41,7.41,0,0,0-7.1-9.35,7,7,0,0,0-1.46.16.22.22,0,0,0-.17.1c-.05.07,0,.16,0,.23A12,12,0,0,1,57.16,37.57ZM62.8,48.34c2.28.45,3.79,1.37,4.41,2.7a4,4,0,0,1,0,3.46c-.95,2.07-4,2.73-5.22,2.9a.37.37,0,0,1-.42-.42c.61-5.73-4.24-8.45-5.5-9.08a.1.1,0,0,1-.06-.09.11.11,0,0,1,.07-.06A32.56,32.56,0,0,1,62.8,48.34ZM33.31,44.88a6.64,6.64,0,0,0,1-.1.33.33,0,0,0,.22-.5,11.92,11.92,0,0,1-2-6.71,12.08,12.08,0,0,1,2.21-7,.18.18,0,0,0,0-.22.26.26,0,0,0-.17-.11,7.77,7.77,0,0,0-1.46-.15A7.4,7.4,0,0,0,26,39.45,7.26,7.26,0,0,0,33.31,44.88Zm.33,2.93a.1.1,0,0,1-.06.09c-1.26.63-6.11,3.35-5.5,9.08a.37.37,0,0,1-.42.42c-1.19-.17-4.26-.83-5.22-2.9a4,4,0,0,1,0-3.46c.63-1.33,2.13-2.25,4.41-2.7a32.56,32.56,0,0,1,6.72-.59A.11.11,0,0,1,33.64,47.81Z"/></svg>