<svg id="Layer_1" data-name="Layer 1" xmlns="http://www.w3.org/2000/svg" viewBox="0 0 90 90"><defs><style>.cls-1{fill:#faf3d8;}.cls-2{fill:#ffcf00;fill-rule:evenodd;}</style></defs><title>Artboard 1</title><rect class="cls-1" x="0.81" y="0.7" width="88.88" height="88.88" rx="26.66"/><path class="cls-2" d="M36.75,24.41H56.12c7.05,0,11,4,11.06,11.05V54.83c0,7.05-4,11-11.06,11H36.75c-7,0-11-4-11-11V35.46C25.7,28.41,29.7,24.41,36.75,24.41ZM46.54,57.3a1.72,1.72,0,0,0,1.72-1.56V34.61A1.7,1.7,0,0,0,47.47,33a1.74,1.74,0,0,0-2.65,1.64V55.74A1.75,1.75,0,0,0,46.54,57.3Zm9.54,0a1.75,1.75,0,0,0,1.72-1.56v-6.8a1.74,1.74,0,0,0-2.65-1.64,1.68,1.68,0,0,0-.79,1.64v6.8A1.72,1.72,0,0,0,56.08,57.3ZM38.6,55.74a1.73,1.73,0,0,1-1.73,1.56,1.71,1.71,0,0,1-1.71-1.56V41.41a1.72,1.72,0,0,1,2.63-1.64,1.77,1.77,0,0,1,.81,1.64Z"/></svg>