<svg width="90" height="90" viewBox="0 0 90 90" fill="none" xmlns="http://www.w3.org/2000/svg">
<g filter="url(#filter0_d_271:104)">
<rect x="20" y="10.0001" width="50" height="50" rx="15" fill="#FFE7DB"/>
</g>
<path fill-rule="evenodd" clip-rule="evenodd" d="M49.6847 30.605C49.6847 33.3463 47.4993 35.5443 44.7739 35.5443C42.0484 35.5443 39.863 33.3463 39.863 30.605C39.863 27.8626 42.0484 25.6666 44.7739 25.6666C47.4993 25.6666 49.6847 27.8626 49.6847 30.605ZM44.7736 44.3335C40.7706 44.3335 37.3525 43.6988 37.3525 41.1603C37.3525 38.6208 40.7487 37.963 44.7736 37.963C48.7767 37.963 52.1947 38.5976 52.1947 41.1372C52.1947 43.6757 48.7986 44.3335 44.7736 44.3335ZM51.7837 30.6942C51.7837 32.0917 51.3669 33.3935 50.6357 34.4757C50.5605 34.5871 50.6273 34.7374 50.76 34.7605C50.9428 34.792 51.1319 34.8099 51.3241 34.8151C53.241 34.8655 54.9615 33.6247 55.4368 31.7565C56.1409 28.9816 54.0736 26.4904 51.4411 26.4904C51.1549 26.4904 50.8812 26.5208 50.6148 26.5755C50.5782 26.5839 50.5396 26.6007 50.5187 26.6333C50.4936 26.6732 50.5124 26.7268 50.5375 26.7614C51.3283 27.8762 51.7837 29.2359 51.7837 30.6942ZM54.9577 36.7648C56.2458 37.0181 57.093 37.535 57.444 38.2863C57.7407 38.903 57.7407 39.6186 57.444 40.2343C56.907 41.3995 55.1761 41.7736 54.5033 41.8702C54.3644 41.8912 54.2526 41.7704 54.2672 41.6307C54.6109 38.4018 51.8771 36.871 51.1699 36.519C51.1396 36.5032 51.1333 36.4791 51.1365 36.4643C51.1386 36.4538 51.1511 36.437 51.1741 36.4339C52.7045 36.4055 54.3498 36.6156 54.9577 36.7648ZM38.343 34.8146C38.5352 34.8094 38.7232 34.7926 38.9071 34.76C39.0398 34.7369 39.1066 34.5866 39.0314 34.4752C38.3002 33.393 37.8833 32.0912 37.8833 30.6938C37.8833 29.2354 38.3388 27.8758 39.1296 26.761C39.1547 26.7263 39.1724 26.6727 39.1484 26.6328C39.1275 26.6012 39.0878 26.5834 39.0523 26.575C38.7849 26.5203 38.5112 26.4899 38.2249 26.4899C35.5925 26.4899 33.5251 28.9811 34.2302 31.756C34.7056 33.6242 36.4261 34.8651 38.343 34.8146ZM38.5298 36.4633C38.5329 36.4791 38.5266 36.5022 38.4974 36.519C37.7891 36.871 35.0553 38.4018 35.399 41.6296C35.4136 41.7704 35.3029 41.8902 35.1639 41.8702C34.4912 41.7736 32.7602 41.3995 32.2233 40.2343C31.9256 39.6175 31.9256 38.903 32.2233 38.2863C32.5743 37.535 33.4204 37.0181 34.7085 36.7638C35.3175 36.6156 36.9618 36.4055 38.4932 36.4339C38.5162 36.437 38.5277 36.4538 38.5298 36.4633Z" fill="#FEAD86"/>
<defs>
<filter id="filter0_d_271:104" x="0" y="0.00012207" width="90" height="90" filterUnits="userSpaceOnUse" color-interpolation-filters="sRGB">
<feFlood flood-opacity="0" result="BackgroundImageFix"/>
<feColorMatrix in="SourceAlpha" type="matrix" values="0 0 0 0 0 0 0 0 0 0 0 0 0 0 0 0 0 0 127 0" result="hardAlpha"/>
<feOffset dy="10"/>
<feGaussianBlur stdDeviation="10"/>
<feColorMatrix type="matrix" values="0 0 0 0 0.770833 0 0 0 0 0.619075 0 0 0 0 0.56849 0 0 0 0.1 0"/>
<feBlend mode="normal" in2="BackgroundImageFix" result="effect1_dropShadow_271:104"/>
<feBlend mode="normal" in="SourceGraphic" in2="effect1_dropShadow_271:104" result="shape"/>
</filter>
</defs>
</svg>
