<svg id="Layer_1" data-name="Layer 1" xmlns="http://www.w3.org/2000/svg" viewBox="0 0 90 90"><defs><style>.cls-1{fill:#e7f2ef;}.cls-2{fill:#51a690;fill-rule:evenodd;}</style></defs><title>Artboard 1</title><rect class="cls-1" x="0.75" y="0.77" width="88.66" height="88.66" rx="26.6"/><path class="cls-2" d="M62.45,39.19l1.49,1.49a6.27,6.27,0,0,1,0,8.79l0,.05,0,0L62.45,51a3.07,3.07,0,0,0-.91,2.19v2.13a6.24,6.24,0,0,1-6.23,6.23H53.18a3.09,3.09,0,0,0-2.19.91L49.5,64a6.21,6.21,0,0,1-4.41,1.82A6.28,6.28,0,0,1,40.68,64l-1.51-1.51A3.1,3.1,0,0,0,37,61.56H34.84a6.24,6.24,0,0,1-6.22-6.23V53.2A3.19,3.19,0,0,0,27.71,51l-1.49-1.47a6.24,6.24,0,0,1,0-8.81l1.52-1.52A3.14,3.14,0,0,0,28.62,37V34.87a6.23,6.23,0,0,1,6.22-6.22H37a3.11,3.11,0,0,0,2.19-.92l1.49-1.49a6.25,6.25,0,0,1,8.82,0L51,27.73a3.1,3.1,0,0,0,2.19.92h2.13a6.23,6.23,0,0,1,6.23,6.22V37A3.09,3.09,0,0,0,62.45,39.19Zm-22.7,13A1.73,1.73,0,0,0,41,51.69L51.67,41.06a1.84,1.84,0,0,0,0-2.57,1.81,1.81,0,0,0-2.55,0L38.49,49.12a1.82,1.82,0,0,0,0,2.57A1.72,1.72,0,0,0,39.75,52.23Zm8.84-1.82a1.81,1.81,0,1,0,1.82-1.8A1.81,1.81,0,0,0,48.59,50.41ZM39.77,38A1.81,1.81,0,1,1,38,39.77,1.81,1.81,0,0,1,39.77,38Z"/></svg>