<svg width="20" height="19" viewBox="0 0 20 19" fill="none" xmlns="http://www.w3.org/2000/svg">
<path d="M10.0698 1.66043C12.5312 1.66043 12.8227 1.67122 13.7908 1.71441C14.6904 1.75399 15.1762 1.90513 15.5001 2.03108C15.9283 2.19662 16.2378 2.39814 16.5581 2.71842C16.882 3.04229 17.0799 3.34818 17.2454 3.77641C17.3714 4.10029 17.5225 4.5897 17.5621 5.48575C17.6053 6.45738 17.6161 6.74887 17.6161 9.20672C17.6161 11.6682 17.6053 11.9597 17.5621 12.9277C17.5225 13.8273 17.3714 14.3132 17.2454 14.637C17.0799 15.0653 16.8784 15.3747 16.5581 15.695C16.2342 16.0189 15.9283 16.2168 15.5001 16.3824C15.1762 16.5083 14.6868 16.6595 13.7908 16.699C12.8191 16.7422 12.5276 16.753 10.0698 16.753C7.60834 16.753 7.31685 16.7422 6.34882 16.699C5.44917 16.6595 4.96336 16.5083 4.63948 16.3824C4.21125 16.2168 3.90177 16.0153 3.58149 15.695C3.25761 15.3711 3.05969 15.0653 2.89415 14.637C2.7682 14.3132 2.61706 13.8237 2.57748 12.9277C2.53429 11.9561 2.5235 11.6646 2.5235 9.20672C2.5235 6.74527 2.53429 6.45378 2.57748 5.48575C2.61706 4.5861 2.7682 4.10029 2.89415 3.77641C3.05969 3.34818 3.26121 3.0387 3.58149 2.71842C3.90536 2.39454 4.21125 2.19662 4.63948 2.03108C4.96336 1.90513 5.45277 1.75399 6.34882 1.71441C7.31685 1.67122 7.60834 1.66043 10.0698 1.66043ZM10.0698 0.00146484C7.56875 0.00146484 7.25567 0.0122607 6.27325 0.0554441C5.29443 0.0986274 4.62149 0.256966 4.03851 0.483679C3.43035 0.721188 2.91575 1.03427 2.40474 1.54887C1.89014 2.05987 1.57706 2.57447 1.33955 3.17904C1.11284 3.76562 0.954501 4.43496 0.911317 5.41378C0.868134 6.3998 0.857338 6.71288 0.857338 9.21392C0.857338 11.715 0.868134 12.028 0.911317 13.0105C0.954501 13.9893 1.11284 14.6622 1.33955 15.2452C1.57706 15.8534 1.89014 16.368 2.40474 16.879C2.91575 17.39 3.43035 17.7066 4.03491 17.9406C4.62149 18.1673 5.29083 18.3256 6.26965 18.3688C7.25208 18.412 7.56516 18.4228 10.0662 18.4228C12.5672 18.4228 12.8803 18.412 13.8627 18.3688C14.8416 18.3256 15.5145 18.1673 16.0975 17.9406C16.702 17.7066 17.2166 17.39 17.7276 16.879C18.2386 16.368 18.5553 15.8534 18.7892 15.2488C19.0159 14.6622 19.1743 13.9929 19.2175 13.0141C19.2607 12.0316 19.2715 11.7186 19.2715 9.21752C19.2715 6.71648 19.2607 6.4034 19.2175 5.42098C19.1743 4.44216 19.0159 3.76921 18.7892 3.18624C18.5625 2.57447 18.2494 2.05987 17.7348 1.54887C17.2238 1.03787 16.7092 0.721188 16.1047 0.487278C15.5181 0.260565 14.8488 0.102226 13.8699 0.0590427C12.8839 0.0122607 12.5708 0.00146484 10.0698 0.00146484Z" fill="#4F4F4F"/>
<path d="M10.0698 4.48169C7.45721 4.48169 5.33763 6.60127 5.33763 9.21387C5.33763 11.8265 7.45721 13.946 10.0698 13.946C12.6824 13.946 14.802 11.8265 14.802 9.21387C14.802 6.60127 12.6824 4.48169 10.0698 4.48169ZM10.0698 12.2835C8.37486 12.2835 7.00019 10.9088 7.00019 9.21387C7.00019 7.51892 8.37486 6.14425 10.0698 6.14425C11.7648 6.14425 13.1394 7.51892 13.1394 9.21387C13.1394 10.9088 11.7648 12.2835 10.0698 12.2835Z" fill="#4F4F4F"/>
<path d="M16.0941 4.29472C16.0941 4.90648 15.5975 5.39949 14.9893 5.39949C14.3776 5.39949 13.8845 4.90288 13.8845 4.29472C13.8845 3.68295 14.3812 3.18994 14.9893 3.18994C15.5975 3.18994 16.0941 3.68655 16.0941 4.29472Z" fill="#4F4F4F"/>
</svg>
