<svg viewBox="-30 -30 2370 1680" fill="none" xmlns="http://www.w3.org/2000/svg" overflow="visible" width="2370" height="1680"><g fill-rule="evenodd" clip-rule="evenodd"><path d="M893.854 1409s206.558-123.79 164.495-347.77c-25.108-133.709-110.274-127.155-159.567-228.38-31.459-64.604 16.34-237.985-81.773-352.042-91.654-106.55-241.52-96.892-289.792-120.037-64.695-31.021-89.334-96.189-107.826-149.711-68.958-199.546-228.277-194.157-254.21-94.881-31.267 119.689-1.331 191.825 145.771 309.123 110.531 88.139-51.3 187.025 44.966 347.503 53.792 89.672 198.436 136.282 127.781 252.23C386.947 1183.81 405.12 1339.9 454.447 1409h439.407Z" fill="#D3E2F2"/><path d="M291.187 218.151a3.982 3.982 0 0 1 5.64.04c.519.525 52.685 53.742 120.609 145.758 62.662 84.898 152.001 221.206 221.743 388.449C701.132 900.969 769.765 1109.83 750.784 1409h-7.993c18.989-297.79-49.319-505.671-110.972-653.524-132.841-318.562-338.607-529.582-340.671-531.677a4 4 0 0 1 .039-5.648" fill="#fff"/><path d="M154.543 677c12.485 0 25.197 10.327 25.197 22.841 0 2.081-.304 4.085-.828 6.001 105.694 51.963 199.96 119.26 280.449 200.281 68.48 68.933 127.197 147.887 174.518 234.667 42.102 77.21 67.205 146.46 80.849 190.96 12.762 41.62 18.169 70 19.454 77.25h-8.109c-1.61-8.8-7.019-35.91-18.973-74.9-13.537-44.14-38.442-112.85-80.223-189.47-46.96-86.12-105.225-164.464-173.172-232.861-79.847-80.375-173.369-147.145-278.239-198.711-4.103 5.707-10.775 9.437-18.329 9.437-12.485 0-22.955-7.967-22.955-20.479 0-12.511 7.878-25.016 20.361-25.016" fill="#fff"/><path d="M21.33 934.906c12.51 0 25.25 10.328 25.25 22.842v.006c38.745 6.944 104.125 21.448 222.953 65.198 158.164 58.238 267.488 159.908 331.346 234.938 69.204 81.31 101.492 149.88 101.812 150.57.082.17.132.36.186.54h-8.824c-6.758-13.59-38.734-74.84-99.442-146.13-63.22-74.23-171.412-174.81-327.844-232.41-118.222-43.526-183.158-57.936-221.617-64.836-3.2 8.624-11.48 14.78-21.22 14.78-12.52 0-23.01-7.966-23.01-20.48s7.89-25.018 20.41-25.018" fill="#fff"/></g><path fill-rule="evenodd" clip-rule="evenodd" d="M2014.442 499.947c-2.367 0-4.857.474-6.813 1.661-4.251 2.578-7.025 9.06-5.209 12.169.772 1.322 1.918 2.145 3.403 2.447 2.211.448 5.024-.303 7.167-1.916 3.137-2.363 3.784-7.92 3.191-14.276a18.019 18.019 0 0 0-1.739-.084m-10.006 110.47c-.784 0-1.53-.136-2.232-.413-4.912-1.924-5.634-9.51-5.749-15.05-.234-11.118 8.953-21.415 18.679-32.317 10.566-11.844 21.492-24.091 20.593-37.788-.609-9.275-6.978-20.739-15.675-23.946.56 8.134-1.043 13.667-4.784 16.485-3.014 2.27-6.924 3.267-10.196 2.604-2.556-.52-4.608-1.995-5.934-4.264-3.126-5.352.976-14.049 6.527-17.415 3.062-1.858 6.792-2.35 10.021-2.17-.977-6.192-2.832-12.668-4.519-17.435-2.928-8.27-6.131-13.413-8.957-17.952-3.383-5.434-6.305-10.125-7.296-17.964-1.195-9.447.92-19.326 6.286-29.363a1.896 1.896 0 0 1 2.581-.78 1.93 1.93 0 0 1 .772 2.603c-4.98 9.317-6.952 18.42-5.86 27.053.885 6.998 3.471 11.15 6.743 16.406 2.93 4.704 6.252 10.038 9.32 18.704.746 2.106 3.28 9.603 4.601 17.657.092.567.178 1.125.254 1.673.008.002.015.002.021.006l.186.048c11.257 3.071 18.989 16.819 19.71 27.796 1.006 15.317-10.467 28.177-21.561 40.612-9.208 10.322-17.906 20.07-17.704 29.666.189 8.99 2.161 11.094 3.321 11.55.625.243 1.428.19 2.39-.16a1.897 1.897 0 0 1 2.438 1.156 1.925 1.925 0 0 1-1.146 2.46c-.988.36-1.934.538-2.83.538" fill="#FFC81A"/><path fill-rule="evenodd" clip-rule="evenodd" d="M2056.54 154.468c-42.001-19.28-88.343-5.196-117.324 18.27-2.969 2.405-41.682 34.8-43.555 87.7-2.001 56.49 38.394 125.543 101.384 131.725-9.992 4.507-23.16 20.191-14.373 32.69 2.556 3.637 10.177 7.943 14.205 1.986 6.845 10.118 16.145 11.889 17.474-.24 22.954-5.298 4.547-27.642-7.19-34.003 64.292-.666 109.697-67.63 111.85-125.452 1.393-37.418-14.59-90.7-62.471-112.677" fill="#FFC81A"/><path d="M1970.735 179.78a3.465 3.465 0 0 1 4.789 1.028 3.46 3.46 0 0 1-1.03 4.786c-32.18 20.78-44.944 50.952-38.487 91.16a3.461 3.461 0 0 1-2.871 3.966 3.463 3.463 0 0 1-3.969-2.869c-6.885-42.869 7.035-75.774 41.568-98.07Z" fill="#fff"/><g fill-rule="evenodd" clip-rule="evenodd"><path d="M749.746 541.007H191.885c-13.722 0-24.885-11.164-24.885-24.886V133.886C167 120.164 178.163 109 191.885 109h557.861c13.722 0 24.886 11.164 24.886 24.886v382.235c0 13.722-11.164 24.886-24.886 24.886Z" fill="#fff"/><path d="M191.885 113C180.369 113 171 122.369 171 133.886v382.235c0 11.517 9.369 20.886 20.885 20.886h557.861c11.516 0 20.886-9.369 20.886-20.886V133.886c0-11.517-9.37-20.886-20.886-20.886H191.885Zm557.861 428.007H191.885c-13.722 0-24.885-11.164-24.885-24.886V133.886C167 120.164 178.163 109 191.885 109h557.861c13.722 0 24.886 11.164 24.886 24.886v382.235c0 13.722-11.164 24.886-24.886 24.886Z" fill="#141414"/><path d="M771.697 190.62H169.004a2 2 0 0 1 0-4h602.693a2 2 0 0 1 0 4M248.207 140.355c-5.027 0-9.117 4.09-9.117 9.117 0 5.028 4.09 9.117 9.117 9.117 5.027 0 9.117-4.089 9.117-9.117 0-5.027-4.09-9.117-9.117-9.117m0 22.234c-7.233 0-13.117-5.884-13.117-13.117 0-7.233 5.884-13.117 13.117-13.117 7.233 0 13.117 5.884 13.117 13.117 0 7.233-5.884 13.117-13.117 13.117M286.052 140.355c-5.027 0-9.118 4.09-9.118 9.117 0 5.028 4.091 9.117 9.118 9.117s9.117-4.089 9.117-9.117c0-5.027-4.09-9.117-9.117-9.117m0 22.234c-7.233 0-13.118-5.884-13.118-13.117 0-7.233 5.885-13.117 13.118-13.117 7.233 0 13.117 5.884 13.117 13.117 0 7.233-5.884 13.117-13.117 13.117" fill="#141414"/><path d="M221.476 149.472c0 6.14-4.978 11.117-11.117 11.117-6.14 0-11.117-4.977-11.117-11.117 0-6.14 4.977-11.117 11.117-11.117 6.14 0 11.117 4.977 11.117 11.117" fill="#FF4B33"/><path d="M210.36 140.355c-5.028 0-9.118 4.09-9.118 9.117 0 5.028 4.09 9.117 9.117 9.117 5.027 0 9.117-4.089 9.117-9.117 0-5.027-4.09-9.117-9.117-9.117m0 22.234c-7.233 0-13.117-5.884-13.117-13.117 0-7.233 5.884-13.117 13.117-13.117 7.233 0 13.117 5.884 13.117 13.117 0 7.233-5.884 13.117-13.117 13.117" fill="#141414"/><path d="M689.488 324.353c0 42.663-34.585 77.248-77.248 77.248-42.663 0-77.248-34.585-77.248-77.248 0-42.663 34.585-77.248 77.248-77.248 42.663 0 77.248 34.585 77.248 77.248" fill="#FF4B33"/><path d="M444.511 415.246h163.403l-81.701-141.511-81.702 141.511Zm166.868 4H441.047a2 2 0 0 1-1.732-3l85.166-147.511a1.999 1.999 0 0 1 3.464 0l85.166 147.511a2.001 2.001 0 0 1-1.732 3Z" fill="#141414"/></g><g><g fill-rule="evenodd" clip-rule="evenodd"><path d="M1796.829 981.385c-48.349 6.355-86.672 93.683 77.462 181.874 4.899-124.937-18.126-189.675-77.462-181.874M1722.789 1150.688c-36.093 15.878-13.536 93.179 114.188 127.239 3.961-101.023-70.672-146.382-114.188-127.239M2023.604 1211.688c12.358-37.444-49.999-85.589-160.788-13.481 72.411 70.554 145.888 58.626 160.788 13.481M2069.721 931.808c-26.451-43.876-126.691-23.156-149.385 147.09 130.842-11.662 181.276-94.19 149.385-147.09" fill="#FFC81A"/><path d="M1822.792 1408.29h.02a2 2 0 0 0 1.98-2.02c-.006-.628-.371-63.86 19.567-145.066 11.702-47.659 28.004-92.095 48.454-132.072 25.542-49.929 57.663-93.006 95.472-128.035a2 2 0 1 0-2.719-2.934c-38.169 35.362-70.584 78.834-96.344 129.207-20.593 40.269-37.003 85.012-48.774 132.989-20.039 81.673-19.662 145.317-19.656 145.951a2 2 0 0 0 2 1.98" fill="#141414"/></g></g><g><g fill-rule="evenodd" clip-rule="evenodd"><path d="M691.809 735.848h456.265V550.31H691.809v185.538Z" fill="#fff"/><path d="M691.807 548.5h456.266c.998 0 1.808.81 1.808 1.81v185.538c0 1-.81 1.81-1.808 1.81H691.807c-.998 0-1.807-.81-1.807-1.81V550.31c0-1 .809-1.81 1.807-1.81Zm454.459 185.538v-181.92H693.615v181.92h452.651Z" fill="#141414"/><path d="M730.582 695.954h110.206V586.477H730.582v109.477Z" fill="#FF4B33"/><path d="M1073.029 598.884c3.993 0 7.23 3.24 7.23 7.238a7.234 7.234 0 0 1-7.004 7.235l-.226.003H869.468c-3.993 0-7.23-3.24-7.23-7.238a7.235 7.235 0 0 1 7.005-7.234l.225-.004h203.561Zm-48.174 36.461c3.993 0 7.23 3.24 7.23 7.238a7.235 7.235 0 0 1-7.005 7.235l-.225.003H869.468c-3.993 0-7.23-3.24-7.23-7.238a7.235 7.235 0 0 1 7.005-7.235l.225-.003h155.387Zm-39.974 43.699a7.234 7.234 0 0 0-7.23-7.238H869.468l-.225.003a7.235 7.235 0 0 0-7.005 7.235c0 3.997 3.237 7.238 7.23 7.238h108.183l.225-.003a7.235 7.235 0 0 0 7.005-7.235Z" fill="#D3E2F2"/><g><path d="M691.809 968.848h456.265V783.31H691.809v185.538Z" fill="#fff"/><path d="M691.807 781.5h456.266c.998 0 1.808.81 1.808 1.81v185.538c0 1-.81 1.81-1.808 1.81H691.807c-.998 0-1.807-.81-1.807-1.81V783.31c0-1 .809-1.81 1.807-1.81Zm454.459 185.538v-181.92H693.615v181.92h452.651Z" fill="#141414"/><path d="M730.582 928.954h110.206V819.477H730.582v109.477Z" fill="#13D6C3"/><path d="M1073.029 831.884c3.993 0 7.23 3.241 7.23 7.238 0 3.922-3.116 7.116-7.004 7.235l-.226.003H869.468a7.234 7.234 0 0 1-7.23-7.238 7.234 7.234 0 0 1 7.005-7.234l.225-.004h203.561Zm-48.174 36.461c3.993 0 7.23 3.241 7.23 7.238a7.235 7.235 0 0 1-7.005 7.235l-.225.003H869.468a7.234 7.234 0 0 1-7.23-7.238 7.235 7.235 0 0 1 7.005-7.235l.225-.003h155.387Zm-39.974 43.699a7.234 7.234 0 0 0-7.23-7.238H869.468l-.225.003a7.235 7.235 0 0 0-7.005 7.235c0 3.997 3.237 7.238 7.23 7.238h108.183l.225-.003a7.235 7.235 0 0 0 7.005-7.235Z" fill="#D3E2F2"/></g><g opacity=".553"><path d="M691.809 1201.848h456.265V1016.31H691.809v185.538Z" fill="#fff"/><path d="M691.807 1014.5h456.266c.998 0 1.808.81 1.808 1.81v185.538c0 1-.81 1.81-1.808 1.81H691.807c-.998 0-1.807-.81-1.807-1.81V1016.31c0-1 .809-1.81 1.807-1.81Zm454.459 185.538v-181.92H693.615v181.92h452.651Z" fill="#141414"/><path d="M730.582 1161.954h110.206v-109.477H730.582v109.477Z" fill="#02BAD3"/><path d="M1073.029 1064.884c3.993 0 7.23 3.241 7.23 7.238 0 3.922-3.116 7.116-7.004 7.235l-.226.003H869.468a7.234 7.234 0 0 1-7.23-7.238 7.234 7.234 0 0 1 7.005-7.234l.225-.004h203.561Zm-48.174 36.461c3.993 0 7.23 3.241 7.23 7.238a7.235 7.235 0 0 1-7.005 7.235l-.225.003H869.468a7.234 7.234 0 0 1-7.23-7.238 7.235 7.235 0 0 1 7.005-7.235l.225-.003h155.387Zm-39.974 43.699a7.234 7.234 0 0 0-7.23-7.238H869.468l-.225.003a7.235 7.235 0 0 0-7.005 7.235c0 3.997 3.237 7.238 7.23 7.238h108.183l.225-.003a7.235 7.235 0 0 0 7.005-7.235Z" fill="#D3E2F2"/></g><g opacity=".162"><path d="M691.809 1434.848h456.265V1249.31H691.809v185.538Z" fill="#fff"/><path d="M691.807 1247.5h456.266c.998 0 1.808.81 1.808 1.81v185.538c0 1-.81 1.81-1.808 1.81H691.807c-.998 0-1.807-.81-1.807-1.81V1249.31c0-1 .809-1.81 1.807-1.81Zm454.459 185.538v-181.92H693.615v181.92h452.651Z" fill="#141414"/><path d="M730.582 1394.954h110.206v-109.477H730.582v109.477Z" fill="#FFC81A"/><path d="M1073.029 1297.884c3.993 0 7.23 3.241 7.23 7.238 0 3.922-3.116 7.116-7.004 7.235l-.226.003H869.468a7.234 7.234 0 0 1-7.23-7.238 7.234 7.234 0 0 1 7.005-7.234l.225-.004h203.561Zm-48.174 36.461c3.993 0 7.23 3.241 7.23 7.238a7.235 7.235 0 0 1-7.005 7.235l-.225.003H869.468a7.234 7.234 0 0 1-7.23-7.238 7.235 7.235 0 0 1 7.005-7.235l.225-.003h155.387Zm-39.974 43.699a7.234 7.234 0 0 0-7.23-7.238H869.468l-.225.003a7.235 7.235 0 0 0-7.005 7.235c0 3.997 3.237 7.238 7.23 7.238h108.183l.225-.003a7.235 7.235 0 0 0 7.005-7.235Z" fill="#D3E2F2"/></g><g><path d="M1253.809 735.848h456.261V550.31h-456.261v185.538Z" fill="#fff"/><path d="M1253.807 548.5h456.263c1 0 1.81.81 1.81 1.81v185.538c0 1-.81 1.81-1.81 1.81h-456.263c-.998 0-1.807-.81-1.807-1.81V550.31c0-1 .809-1.81 1.807-1.81Zm454.463 185.538v-181.92h-452.655v181.92h452.655Z" fill="#141414"/><path d="M1292.582 695.954h110.206V586.477h-110.206v109.477Z" fill="#FFC81A"/><path d="M1635.03 598.884c3.99 0 7.23 3.24 7.23 7.238a7.238 7.238 0 0 1-7.01 7.235l-.22.003h-203.562c-3.993 0-7.23-3.24-7.23-7.238a7.235 7.235 0 0 1 7.005-7.234l.225-.004h203.562Zm-48.17 36.461c3.99 0 7.22 3.24 7.22 7.238 0 3.922-3.11 7.116-7 7.235l-.22.003h-155.392c-3.993 0-7.23-3.24-7.23-7.238a7.235 7.235 0 0 1 7.005-7.235l.225-.003h155.392Zm-39.979 43.699a7.234 7.234 0 0 0-7.23-7.238h-108.183l-.225.003a7.235 7.235 0 0 0-7.005 7.235c0 3.997 3.237 7.238 7.23 7.238h108.183l.225-.003a7.235 7.235 0 0 0 7.005-7.235Z" fill="#D3E2F2"/><g><path d="M1253.809 968.848h456.261V783.31h-456.261v185.538Z" fill="#fff"/><path d="M1253.807 781.5h456.263c1 0 1.81.81 1.81 1.81v185.538c0 1-.81 1.81-1.81 1.81h-456.263c-.998 0-1.807-.81-1.807-1.81V783.31c0-1 .809-1.81 1.807-1.81Zm454.463 185.538v-181.92h-452.655v181.92h452.655Z" fill="#141414"/><path d="M1292.582 928.954h110.206V819.477h-110.206v109.477Z" fill="#FFC81A"/><path d="M1635.03 831.884c3.99 0 7.23 3.241 7.23 7.238a7.238 7.238 0 0 1-7.01 7.235l-.22.003h-203.562a7.234 7.234 0 0 1-7.23-7.238 7.234 7.234 0 0 1 7.005-7.234l.225-.004h203.562Zm-48.17 36.461c3.99 0 7.22 3.241 7.22 7.238 0 3.922-3.11 7.116-7 7.235l-.22.003h-155.392a7.234 7.234 0 0 1-7.23-7.238 7.235 7.235 0 0 1 7.005-7.235l.225-.003h155.392Zm-39.979 43.699a7.234 7.234 0 0 0-7.23-7.238h-108.183l-.225.003a7.235 7.235 0 0 0-7.005 7.235c0 3.997 3.237 7.238 7.23 7.238h108.183l.225-.003a7.235 7.235 0 0 0 7.005-7.235Z" fill="#D3E2F2"/></g><g opacity=".553"><path d="M1253.809 1201.848h456.261V1016.31h-456.261v185.538Z" fill="#fff"/><path d="M1253.807 1014.5h456.263c1 0 1.81.81 1.81 1.81v185.538c0 1-.81 1.81-1.81 1.81h-456.263c-.998 0-1.807-.81-1.807-1.81V1016.31c0-1 .809-1.81 1.807-1.81Zm454.463 185.538v-181.92h-452.655v181.92h452.655Z" fill="#141414"/><path d="M1292.582 1161.954h110.206v-109.477h-110.206v109.477Z" fill="#FFC81A"/><path d="M1635.03 1064.884c3.99 0 7.23 3.241 7.23 7.238a7.238 7.238 0 0 1-7.01 7.235l-.22.003h-203.562a7.234 7.234 0 0 1-7.23-7.238 7.234 7.234 0 0 1 7.005-7.234l.225-.004h203.562Zm-48.17 36.461c3.99 0 7.22 3.241 7.22 7.238 0 3.922-3.11 7.116-7 7.235l-.22.003h-155.392a7.234 7.234 0 0 1-7.23-7.238 7.235 7.235 0 0 1 7.005-7.235l.225-.003h155.392Zm-39.979 43.699a7.234 7.234 0 0 0-7.23-7.238h-108.183l-.225.003a7.235 7.235 0 0 0-7.005 7.235c0 3.997 3.237 7.238 7.23 7.238h108.183l.225-.003a7.235 7.235 0 0 0 7.005-7.235Z" fill="#D3E2F2"/></g><g opacity=".162"><path d="M1253.809 1434.848h456.261V1249.31h-456.261v185.538Z" fill="#fff"/><path d="M1253.807 1247.5h456.263c1 0 1.81.81 1.81 1.81v185.538c0 1-.81 1.81-1.81 1.81h-456.263c-.998 0-1.807-.81-1.807-1.81V1249.31c0-1 .809-1.81 1.807-1.81Zm454.463 185.538v-181.92h-452.655v181.92h452.655Z" fill="#141414"/><path d="M1292.582 1394.954h110.206v-109.477h-110.206v109.477Z" fill="#FFC81A"/><path d="M1635.03 1297.884c3.99 0 7.23 3.241 7.23 7.238a7.238 7.238 0 0 1-7.01 7.235l-.22.003h-203.562a7.234 7.234 0 0 1-7.23-7.238 7.234 7.234 0 0 1 7.005-7.234l.225-.004h203.562Zm-48.17 36.461c3.99 0 7.22 3.241 7.22 7.238 0 3.922-3.11 7.116-7 7.235l-.22.003h-155.392a7.234 7.234 0 0 1-7.23-7.238 7.235 7.235 0 0 1 7.005-7.235l.225-.003h155.392Zm-39.979 43.699a7.234 7.234 0 0 0-7.23-7.238h-108.183l-.225.003a7.235 7.235 0 0 0-7.005 7.235c0 3.997 3.237 7.238 7.23 7.238h108.183l.225-.003a7.235 7.235 0 0 0 7.005-7.235Z" fill="#D3E2F2"/></g></g></g></g><g><g fill-rule="evenodd" clip-rule="evenodd"><path d="m1633.779 1504-10.272 95.789-50.334-3.061-9.376-91.338 69.982-1.39Z" fill="#fff"/><path d="m1566.637 1512.21 8.455 82.367 46.53 2.83 9.138-85.208c.123-1.144 1.032-2.007 2.113-2.007 1.27 0 2.257 1.177 2.113 2.521l-9.366 87.334c-.123 1.148-1.038 2.006-2.111 2.006l-.123-.003-50.333-3.061c-1.038-.064-1.88-.916-1.994-2.014l-8.651-84.273c-.137-1.34.849-2.51 2.115-2.51 1.085 0 1.996.87 2.114 2.018" fill="#141414"/><path d="m1521.128 1467-3.926 124.49-57.134 4.93-25.314-93.675 86.374-35.745Z" fill="#fff"/><path d="m1438.414 1508.104 23.221 85.927 53.505-4.616 3.607-108.292c.047-1.416 1.308-2.433 2.613-2.108.989.246 1.675 1.194 1.639 2.266l-3.671 110.282c-.037 1.141-.876 2.071-1.953 2.164l-57.133 4.931a2.049 2.049 0 0 1-.175.008c-.941 0-1.781-.659-2.043-1.629l-23.7-87.701c-.376-1.392.575-2.792 1.945-2.86.986-.048 1.874.625 2.145 1.628" fill="#141414"/><path d="M1524.17 1583.481c-.258-1.071-1.258-1.749-2.291-1.555-.984.186-2.228.438-3.694.736-8.981 1.821-27.67 5.611-45.381 5.625h-.046c-10.433 0-13.52-4.338-19.749-9.8a1.928 1.928 0 0 0-1.783-.42c-30.397 8.338-58.449 15.694-74.725 27.13-2.861 2.011-13.177 10.786-11.393 16.991.826 2.87 3.764 4.325 8.733 4.325 18.145 0 57.236.106 91.725.201 27.906.077 52.007.144 61.081.144.958 0 1.824-.459 2.437-1.29 3.573-4.842-2.246-31.047-4.914-42.087" fill="#bfa2db"/><path d="M1526.281 1636.136h-156.836c-2.607 0-4.72-2.225-4.72-4.972v-1.642c0-2.747 2.113-4.973 4.72-4.973h156.836c2.606 0 4.719 2.226 4.719 4.973v1.642c0 2.747-2.113 4.972-4.719 4.972M1413.985 1599.251c-.795 0-1.557-.471-1.921-1.278-3.337-7.384-9.748-5.577-10.469-5.344-1.118.357-2.308-.301-2.655-1.477-.347-1.178.267-2.427 1.382-2.8 3.636-1.215 11.574-1.171 15.581 7.695.505 1.118.055 2.453-1.005 2.986a2.028 2.028 0 0 1-.913.218M1432.766 1593.854c-.795 0-1.557-.471-1.921-1.278-3.338-7.383-9.749-5.576-10.468-5.344-1.119.359-2.309-.301-2.656-1.477-.347-1.178.268-2.426 1.382-2.799 3.64-1.215 11.576-1.169 15.581 7.694.505 1.118.055 2.454-1.005 2.986a2.015 2.015 0 0 1-.913.218" fill="#141414"/><g><path d="M1627.765 1576.523s29.476 26.679 15.45 47.079c-18.581 5.491-62.99 10.592-82.708.716-13.822-6.923 8.036-48.318 8.036-48.318 22.252 2.344 38.499 1.226 59.222.523" fill="#bfa2db"/><path d="M1554.739 1628.296c.208 4.001 4.244 6.491 8.527 6.491h76.328c4.507 0 7.539-4.253 6.742-8.823-.796-4.568-2.12-4.175-5.12-4.175l-77.95.431c-3.202 0-8.757 1.643-8.527 6.076M1623.175 1606.591c.76 0 1.486-.46 1.822-1.235.457-1.058.015-2.306-.989-2.789-.8-.386-19.819-9.34-41.038-2.833-1.061.326-1.67 1.494-1.362 2.612.309 1.117 1.419 1.762 2.479 1.434 19.754-6.052 38.079 2.534 38.262 2.621.268.128.549.19.826.19M1617.063 1592.621c.779 0 1.52-.482 1.843-1.285.43-1.07-.042-2.306-1.058-2.761-.637-.285-15.733-6.898-28.986-.205-.996.503-1.416 1.763-.938 2.812.477 1.05 1.672 1.492 2.668.989 11.599-5.861 25.554.221 25.693.284.254.113.518.166.778.166" fill="#141414"/></g><g><path d="M1712.438 1148.043c-23.881 221.843-17.18 383.323-17.18 383.323-48.214 7.994-95.528 8.024-141.233-6.179L1543 1058.184l-57 143.987s65.909 247.344 54.473 268.098c-11.435 20.754-111.339 63.569-138.185 47.504-11.107-6.648-71.055-211.519-68.288-330.425 1.447-62.196 105.94-233.943 113-279.503 33.611-4.151 216.702 0 216.702 0s68.437 57.192 48.736 240.198Z" fill="#141414"/><path d="M1547.389 936.858c-4.291 3.166-13.852 9.34-29.802 15.214-5.705 2.1-8.749 1.78-9.624.866-.591-.617-.312-1.886-.092-2.588 1.726-5.515 11.048-14.176 24.062-16.092 4.643-.68 9.948.437 15.456 2.6m15.604-4.363c2.986 0 6.467 1.788 9.369 3.28 12.004 6.164 21.854 19.598 22.758 26.064-2.421-.977-7.864-4.934-12.742-8.48-7.958-5.787-17.49-12.72-27.05-17.555 1.704-1.3 3.598-2.293 5.728-3.012a6.06 6.06 0 0 1 1.937-.297m3.776 51.118c.241 0 .486-.047.724-.145 1.029-.424 1.539-1.65 1.139-2.74-4.791-13.059-11.566-32.079-14.169-40.62 9.191 4.771 18.41 11.476 25.652 16.741 10.871 7.907 14.77 10.563 17.454 9.066.605-.337 1.619-1.196 1.619-3.168 0-8.866-12.657-24.403-25.08-30.784-4.197-2.155-9.426-4.838-14.266-3.205-3.357 1.13-6.191 2.845-8.62 5.105-6.912-3.022-13.725-4.703-19.839-3.799-14.029 2.066-24.901 11.26-27.308 18.954-1.192 3.811.165 5.983 1.08 6.937 2.435 2.54 7.059 2.579 13.746.116 11.494-4.232 19.747-8.588 25.223-11.977-4.118 8.835-6.507 20.867-9.022 35.49-.197 1.151.522 2.253 1.609 2.464 1.078.206 2.128-.553 2.326-1.705 3.303-19.213 6.317-31.791 11.502-39.39 3.35 11.217 13.078 37.802 14.364 41.309.308.837 1.065 1.35 1.866 1.35" fill="#fff"/></g></g><path fill-rule="evenodd" clip-rule="evenodd" d="M1379.478 627.348c6.196 20.297 33.405 91.512 52.219 98.266l62.854 50.033c-9.733 21.089-44.84 47.053-63.194 47.053-18.353 0-77.403-13.731-101.874-173.559-5.445-23.992 3.882-55.092 10.001-48.633 13.241 13.975 39.994 26.84 39.994 26.84" fill="#fff"/><path fill-rule="evenodd" clip-rule="evenodd" d="M1491.89 776.248c-10.236 19.88-43.345 44.325-60.534 44.325-22.205 0-40.287-18.254-47.03-26.102-24.58-28.607-42.325-77.611-52.743-145.651-.007-.05-.017-.1-.028-.149-3.933-17.329.106-38.36 4.613-45.225.875-1.332 1.439-1.615 1.572-1.666.013.02.089.075.199.19 12.19 12.868 35.041 24.541 39.779 26.886 5.065 16.054 32.193 90.475 52.915 98.63l61.257 48.762Zm-60.534 48.579c19.217 0 55.127-26.627 65.124-48.288a2.127 2.127 0 0 0-.606-2.556l-62.854-50.033a2.16 2.16 0 0 0-.606-.338c-16.829-6.041-43.233-71.756-50.903-96.885a2.134 2.134 0 0 0-1.113-1.295c-.264-.127-26.558-12.861-39.371-26.386-1.518-1.602-3.529-1.966-5.379-.978-7.336 3.92-12.834 31.179-8.258 51.47 24.92 162.66 85.875 175.289 103.966 175.289Z" fill="#141414"/><g transform="matrix(-1 0 0 1 1831 525)"><path fill-rule="evenodd" clip-rule="evenodd" d="m508.704 130.705-33.953 10.92a8.193 8.193 0 0 1-10.308-5.291l-25.958-80.711a8.192 8.192 0 0 1 5.29-10.307l33.953-10.92a8.192 8.192 0 0 1 10.308 5.29l25.959 80.711a8.193 8.193 0 0 1-5.291 10.308" fill="#141414"/><circle cx="479.289" cy="47.75" r="3.75" fill="#13D6C3"/></g><g fill-rule="evenodd" clip-rule="evenodd"><path d="M1322.595 630.404c4.333-.907 10.339 2.148 10.076 6.751-.201 3.526-4.635 6.398-10.882 3.124-4.584-2.403-3.124-9.052.806-9.875M1329.942 600.801c-1.516-6.198 3.5-10.408 10.51-7.117 1.978.93 4.991 3.115 5.121 6.585.333 8.846-14.554 4.933-15.631.532" fill="#fff"/><path d="M1323.37 628.648c-4.449-2.873-2.556-11.15 2.752-11.932 1.225-.181 2.492-.106 3.73.168-2.075-1.008-3.57-2.321-4.156-3.6-2.478-5.411 2.685-13.06 14.176-6.293 6.269 3.69 3.826 11.44-1.323 11.636a19.355 19.355 0 0 1-5.567-.596c4.085 2.126 6.948 6.303 5.152 10.1-2.011 4.251-8.189 4.763-14.764.517" fill="#fff"/><path d="M1322.773 638.395c2.507 1.314 4.841 1.56 6.405.674.821-.465 1.32-1.207 1.367-2.035.074-1.296-.737-2.28-1.431-2.877-1.293-1.112-3.218-1.785-4.93-1.785-.401 0-.79.037-1.157.114-.951.199-1.742 1.245-1.923 2.544-.097.698-.129 2.423 1.669 3.365m13.438-11.173c.813-1.721.023-3.378-.782-4.465-.833-1.124-1.993-2.062-3.281-2.755a18.806 18.806 0 0 1-2.888-1.055 8.877 8.877 0 0 0-1.771-.203c-.359 0-.713.025-1.057.076-1.908.28-2.964 2.13-3.288 3.627-.309 1.426-.133 3.437 1.38 4.414 3.364 2.173 6.814 3.057 9.22 2.372 1.163-.332 1.993-1.008 2.467-2.011m5.145-13.292c.186-.735.549-3.275-2.563-5.107-2.658-1.565-5.106-2.364-7.077-2.364-1.324 0-2.433.36-3.244 1.093-1.276 1.152-1.623 3.144-.843 4.846.335.732 1.415 1.7 3.048 2.516 1.017.255 2.02.62 2.977 1.089 1.423.358 3.042.564 4.814.498 1.669-.063 2.599-1.424 2.888-2.571m-1.811-18.321c-2.608-1.224-5.017-1.26-6.44-.094-1.202.984-1.603 2.726-1.1 4.78.243.992 4.574 3.669 8.726 3.089 2.479-.346 2.764-1.728 2.715-3.034-.106-2.818-3.268-4.443-3.901-4.741m-22.653 38.835c.34-2.448 1.746-4.483 3.663-5.514-1.556-1.908-2.171-4.602-1.568-7.384.676-3.121 2.679-5.52 5.276-6.51a6.32 6.32 0 0 1-.501-.866c-1.57-3.427-.822-7.356 1.861-9.775.571-.516 1.525-1.195 2.874-1.661a4.84 4.84 0 0 1-.623-1.427c-.894-3.655.054-7.051 2.537-9.083 2.723-2.23 6.814-2.402 10.942-.465 1.44.677 6.149 3.282 6.343 8.43.125 3.337-1.466 5.799-4.339 6.893 2.018 2.18 2.838 5.055 2.124 7.889-.796 3.152-3.307 5.376-6.331 5.716 1.806 2.703 2.153 5.717.906 8.353-1.007 2.129-2.786 3.61-5.146 4.283-.307.087-.631.138-.951.196.61 1.173.907 2.446.832 3.758-.129 2.265-1.444 4.319-3.517 5.493-1.259.713-2.709 1.068-4.265 1.068-1.959 0-4.086-.562-6.211-1.676-2.863-1.501-4.36-4.458-3.906-7.718" fill="#141414"/><path d="M1358.01 660.328c1.506-7.716 8.778-10.557 13.105-11.245-1.604-12.193 3.958-22.631 5.911-25.397 2.975-4.215 13.877-6.482 11.865 4.694-1.559 8.663-3.794 13.59-2.006 20.966l-8.868 5.765c.391 1.116.717 2.26.939 3.316 3.033 14.434-15.026 19.193-20.391 15.655-2.873-1.894-2.117-5.747-.555-13.754" fill="#fff"/><path d="M1354.965 666.052c0 1.37.061 2.67.29 4.11.12.76.83 1.27 1.59 1.15.72-.12 1.22-.78 1.15-1.5l-.009-.09c-.221-2.3-.101-4.85.409-7.17.47-2.35 1.37-4.58 2.68-6.46.65-.95 1.411-1.81 2.23-2.46.84-.68 1.81-1.24 2.87-1.67 1.03-.42 2.14-.75 3.26-.99.24 1.07.54 2.13.89 3.18.29.85 1.22 1.32 2.08 1.03.84-.29 1.3-1.21 1.03-2.06-.27-.85-.5-1.7-.699-2.57a32.602 32.602 0 0 1-.661-4.2c-.31-3.4-.089-6.86.6-10.22.57-2.81 1.46-5.6 2.73-8.06.31-.6.66-1.19 1.01-1.64.31-.4.79-.84 1.29-1.23 1.031-.78 2.24-1.44 3.47-1.91 1.22-.47 2.52-.75 3.59-.66.52.04.95.18 1.25.37.29.19.5.44.67.84.341.79.35 2.1.15 3.39-.05.33-.12.66-.19.99l-.24 1.08-.52 2.16c-.69 2.89-1.57 5.88-1.83 9.19-.12 1.64-.069 3.33.181 4.97.259 1.63.679 3.2 1.169 4.73a2.116 2.116 0 0 0 2.67 1.37 2.118 2.118 0 0 0 1.38-2.67l-.01-.01-.01-.06c-.449-1.33-.82-2.67-1.05-4.01a17.65 17.65 0 0 1-.21-4.04c.17-2.72.93-5.57 1.62-8.53l.5-2.24.24-1.13c.08-.4.15-.81.21-1.23.2-1.66.34-3.5-.49-5.5-.42-.99-1.2-1.97-2.19-2.57-.99-.61-2.06-.86-3.03-.92-1.96-.11-3.65.36-5.23.97a17.86 17.86 0 0 0-4.38 2.5c-.68.54-1.32 1.12-1.93 1.92-.56.75-.96 1.47-1.33 2.21-1.45 2.92-2.35 5.94-2.94 9.04-.71 3.77-.9 7.67-.47 11.5-.06.02-.13.03-.19.05-1.35.35-2.69.81-3.99 1.42-1.29.61-2.54 1.39-3.66 2.38-1.139 1.02-2.03 2.16-2.77 3.36-1.52 2.42-2.43 5.12-2.84 7.82-.23 1.35-.34 2.71-.34 4.07" fill="#141414"/></g><g fill-rule="evenodd" clip-rule="evenodd"><path d="M1675.024 920c2.076-34.243 22.646-220.481 0-256.806-35.216-56.49-126.774-51.796-126.774-51.796s-46.447-4.814-79.824 32.899c-9.905 11.191-33.38 64.233-37.952 80.828 2.71 8.778 23.599 28.417 34.052 35.111-17.703 75.709-18.505 159.116-18.505 159.116s193.527 3.902 229.003.648Z" fill="#bfa2db"/><path d="M1474.878 709.488c.646-1.72 3.393-.511 2.592 1.211-2.99 9.229-9.774 45.348-10.826 49.362-12.639 65.719-18.642 144.471-18.51 157.254 19.874.164 184.154 3.814 224.594 1.226.274-40.541 26.274-209.541.452-254.286-16.773-29.064-49.668-41.337-74.334-46.49-26.96-5.631-50.231-4.26-50.464-4.244-1.197-.184-45.612-4.271-78.365 32.185-9.286 10.492-32.319 61.999-37.318 79.355 2.975 7.741 20.164 24.343 30.718 31.852.98-3.352 9.063-37.985 11.461-47.425Zm-8.046-66.601c32.639-36.878 78.155-33.891 81.45-33.62 39.331-2.37 106.171 10.716 128.583 52.867 26.125 54.134 2.552 184.947.596 234.237-.706 9.016.066 25.726-1.858 25.776-52.387.667-210.674-.642-229.679-.67a2.128 2.128 0 0 1-2.031-2.094c-.012-.801 6.048-86.72 18.994-158.134-10.409-7.565-32.888-26.288-34.465-36.688 4.325-15.699 27.893-69.791 38.41-81.674Z" fill="#141414"/></g><g fill-rule="evenodd" clip-rule="evenodd"><path d="M1586.865 581.827s1.358 34.439 15.587 39.356c3.871 19.356-22.361 32.573-42.301 31.637-38.601-1.812-26.588-33.363-23.933-33.45-.077-3.954-2.209-33.536-2.209-33.536l52.856-4.007Z" fill="#fff"/><path d="M1600.554 622.706c.691 5.062-.878 9.859-4.675 14.275-7.368 8.571-22.348 14.348-35.628 13.715-13.267-.623-21.796-5.039-24.663-12.77-2.694-7.261.273-15.135 1.471-16.6a2.13 2.13 0 0 0 1.287-1.996c-.067-3.386-1.571-24.645-2.064-31.536l48.59-3.683c.565 7.7 3.341 32.848 15.682 38.595m-38.373 32.288c13.929 0 29.168-6.22 36.923-15.24 4.9-5.698 6.779-12.265 5.434-18.987a2.124 2.124 0 0 0-1.39-1.593c-10.535-3.641-13.791-28.255-14.157-37.431a2.127 2.127 0 0 0-.71-1.504 2.16 2.16 0 0 0-1.576-.533l-52.856 4.007a2.128 2.128 0 0 0-1.961 2.274c.02.276 1.868 25.934 2.166 32.384-2.315 2.495-3.784 8.61-3.815 12.941-.045 6.068 2.036 11.363 6.019 15.312 5.059 5.018 13.065 7.817 23.794 8.321.705.032 1.416.049 2.129.049" fill="#141414"/></g><g fill-rule="evenodd" clip-rule="evenodd"><path d="M1598.25 714.505a1009.177 1009.177 0 0 1 2.95 25.573c.863 8.535 1.624 17.082 2.087 25.613v.007a2 2 0 1 0 3.993-.246c-.596-8.633-1.487-17.208-2.478-25.767a1015.927 1015.927 0 0 0-3.337-25.627 1.624 1.624 0 0 0-3.216.436l.001.011Z" fill="#141414"/><path d="M1378.065 860.888c1.257-5.565 14.448-9.641 24.829-13.534.083-.248.153-.502.24-.749 7.346-20.74 184.095-24.668 194.221-31.855 8.074-5.73 7.787-40.166 7.929-49.179 15.557 1.069 82.095 6.7 82.095 6.7-2.845 95.196-32.757 106.377-53.942 113.221-36.212 11.699-147.774-4.443-172.45 2.011-21.095 5.517-31.991-14.673-45.92-.152-4.621 4.817-10.818-.411-12.688-6.298-1.126-3.542-2.067-9.443-2.077-16.046-13.753 2.582-23.63 2.049-22.237-4.119" fill="#fff"/><path d="M1439.484 875.659c-2.023 1.778-4.002 5.53-4.003 11.898-.002 5.765-1.457 7.93-4.462 8.261-4.068.447-5.885-3.133-6.841-9.585-.387-2.615-.402-7.398.35-10.57" fill="#fff"/><path d="M1413.061 862.421c-1.738 11.95-.354 25.018 3.21 28.729 3.853 4.014 8.865 2.527 8.156-3.274-.704-5.753-.068-14.156 1.671-19.371" fill="#fff"/><path d="M1380.413 862.892c1.49 1.49 6.93 2.21 17.77.33.09-4.03.55-8.28 1.53-12.42-7.716 3.068-21.381 7.062-19.3 12.09m23.99 17.52c1.363 3.737 4.173 7.354 7.6 6.53-1.962-8.118-1.512-16.583-.07-24.691.226-1.324 2.298-1.126 2.27.221-.667 7.251-.556 14.664 1.12 21.71.664 2.316 1.3 4.775 3.31 6.2 1.191.802 2.639 1.377 3.39.08.656-3.213-.25-9.154.73-14.61.367-2.04.921-8.933 3.639-8.631a1.387 1.387 0 0 1 1.031 1.671c-1.562 6.406-1.373 13.273-.77 19.83.912 2.472 2.367 6.204 5.4 4.44 2.59-3.498.806-9.046 2.701-13.08.784-1.886 3.083-7.627 5.929-5.56.63.67.6 1.72-.06 2.349-1.495 1.373-2.427 3.694-2.82 5.821 6.781 2.476 13.59 5.121 22.65 2.75 34.385-6.184 142.237 9.391 172.33-1.972 19.62-6.338 49.2-15.898 52.41-109.248-10.72-.91-61.08-5.15-77.81-6.37-.199 21.008-1.418 43.414-8.8 48.63-3.92 2.79-23.57 4.59-60.87 7.8-37.568 3.6-91.439 6.778-123.07 17.009-6.88 2.481-9 4.601-9.5 6.021-3.549 9.719-3.44 24.105-.74 33.1m-28.41-19.99c1.057-6.377 14.733-10.881 24.748-14.541.154-.056.061-.011.462-.169.668-2.792 3.237-5.63 10.147-8.031 35.378-12.297 152.41-17.884 184.775-24.666 4.378-3.103 6.728-18.273 7.008-45.093-.038-1.993-.241-4.509 2.301-4.47 15.389 1.06 81.459 6.64 82.119 6.7a2.128 2.128 0 0 1 1.95 2.179c-2.905 83.997-21.884 122.929-101.16 119.669-33.613.889-102.303-7.124-126.82-2.439-9.81 2.571-17.41-.02-24.1-2.489.003 3.256.162 6.755-2.46 9.38-3.315 2.983-8.758 1.829-10.72-1.99-3.775 2.793-8.837-.02-10.72-3.56-12.152 2.492-14.936-12.515-15.31-23.361-7.92 1.074-23.599 3.718-22.22-7.119" fill="#141414"/></g><g><g fill-rule="evenodd" clip-rule="evenodd"><path d="M1514.118 532.094c5.997-49.74 38.729-52.606 62.346-48.313 18.822 3.423 42.901 18.984 40.77 50.292 9.425-3.06 16.306 2.669 17.53 10.116 1.387 8.451-3.05 22.746-17.001 20.284-3.055 24.226-19.813 52.134-65.342 47.465-34.471-3.536-43.761-34.57-38.303-79.844" fill="#fff"/><path d="M1615.778 564.223c-1.782 13.629-7.943 27.138-19.042 35.744-12.967 12.151-55.939 17.039-70.955-3.511-12.779-13.023-14.687-58.207-4.898-84.301 6.776.746 17.177 1.61 26.659 1.24 2.174-3.07 4.519-8.958 6.207-13.194.813-2.042 1.473-3.7 1.888-4.474 1.214 1.661-.434 10.43-1.425 15.705-.194 1.03-.362 1.927-.48 2.612 13.192 6.45 41.385 9.687 57.248 6.766.172 3.046-.37 6.349-.846 9.239-1.069 6.497-1.794 10.91 6.717 5.641 13.434-8.316 20.342 14.286 11.076 23.247-5.103 4.936-8.9 5.28-12.149 5.286ZM1595.97 450.08c4.85 2.073 17.665 7.767 17.846 13.167-20.878-17.505-90.03-25.638-111.13 37.413-6.746 21.85-10.889 99.551-9.56 106.525 10.926 2.276 27.308 4.778 41.921 4.446.255-.723.417-1.494.543-2.284 17.906 8.35 43.947 7.036 59.41-3.347-.406 3.508-.358 5.906-.323 7.671.028 1.393.048 2.391-.169 3.229 15.241 2.458 37.891-3.688 37.891-3.688s38.88-79.527 2.016-126.021c8.635-1.992 26.724-14.516 14.436-40.42-9.507-20.041-43.627-20.4-52.88 3.309Zm24.197 98.853c.214 1.031.41 1.977 1.456 1.765 3.19-.648 3.596-5.201.687-6.675-2.389-1.209-3.122 1.488-2.36 3.999.09.292.154.605.217.911Z" fill="#141414"/></g></g><g><g fill-rule="evenodd" clip-rule="evenodd"><path d="M1533.343 529.183c3.163-.652 6.332-1.305 9.553-.314 5.715-1.703-4.003-5.437-6.274-4.796-2.909-.668-12.153 3.627-5.896 5.614a69.462 69.462 0 0 0 2.617-.504Zm-7.6 14.446c-4.234-4.258 6.495-9.422 10.2-8.416 3.598.122 11.377 4.423 9.888 8.386a1.453 1.453 0 0 1-2.053-.04c-3.816-4.839-11.849-6.013-15.544-.576a1.972 1.972 0 0 1-2.49.646Zm26.043 13.172c-10.893 4.147-6.794 16.693 4.284 15.434 2.57.031 2.584-4.01.018-4-2.163-.052-5.402-.334-6.354-2.217-.867-3.037.934-4.011 2.778-5.009 1.503-.813 3.034-1.642 3.174-3.614.402-1.873 2.343-22.483-2.266-15.645-.127 1.365-.227 2.741-.327 4.12-.267 3.679-.536 7.376-1.307 10.93Zm22.85-8.777c.688-.793 1.655-1.33 2.8-1.5 4.345-.553 6.112 2.471 7.514 4.87 1.004 1.716 1.82 3.113 3.258 2.65 2.193-1.293.538-3.897-.691-5.831-.256-.404-.494-.778-.675-1.104-2.21-3.034-5.932-5.192-9.86-4.82-8.024.625-7.447 8.535-2.345 5.736Zm8.437-14.98c-.52-.169-1.158-.155-1.8-.14-1.174.026-2.365.053-2.897-1.04.231-4.785 13.52-2.597 15.967.122 1.405 1.088.381 3.554-1.416 3.258-1.505-.216-2.986-.63-4.47-1.046-1.775-.496-3.554-.994-5.384-1.154Zm-47.882 56.788c-.584-.411-1.138-.843-1.61-1.325-3.299-3.806-1.917-7.046 3.272-5.904a69.92 69.92 0 0 0-1.662 7.229Zm6.029 2.873a34.759 34.759 0 0 1-2.209-.808 24.176 24.176 0 0 1-2.196-1.063 68.635 68.635 0 0 0 1.751-7.995 88.55 88.55 0 0 1 4.449.848c-.2.79-.46 1.6-.724 2.417-.704 2.18-1.43 4.43-1.071 6.6Zm17.83 2.502a67.73 67.73 0 0 1-6.622-.256 48.75 48.75 0 0 1-.781-.085l-.205-.023c1.201-2.827 1.447-6.167 1.213-9.218 2.049.35 4.122.652 6.204.83-.111 2.922-.119 5.843.191 8.752Zm7.508-8.688c-.144.176.634 7.694.744 7.963-2.061.372-4.145.572-6.245.67.105-2.863-.107-5.716-.41-8.563 1.954.113 3.931.108 5.911-.07Zm10.127-1.727c1.785 1.887 1.569 5.498-.892 6.8-1.614 1.104-3.656 1.777-5.59 2.276-.017-.05-.082-.766-.171-1.744-.204-2.24-.532-5.85-.696-5.982l-.017-.001c.005-.004.01-.004.017 0 .927.045 2.082-.423 3.224-.886 1.626-.658 3.228-1.308 4.125-.463Zm-26.699 5.796c-.03.659-.061 1.314-.125 1.953.003.177-.005.353-.014.529-.026.525-.051 1.05.246 1.609-2.339-.31-4.658-.752-6.9-1.372 1.468-1.595 1.744-3.996 2.009-6.298.11-.96.218-1.901.41-2.761 1.76.377 3.538.736 5.333 1.069-.789 1.618-.874 3.458-.959 5.271Zm-.467-9.8c-7.864-1.76-15.276-3.418-19.91-.39-13.252 23.892 71.788 23.293 47.306.632-1.526-.547-2.984.036-4.377.592l-.146.059c-6.478 2.775-14.908.89-22.873-.893Z" fill="#141414"/><path d="M1533.902 550.229c1.497.013 1.476 2.336-.02 2.323-1.498-.012-1.475-2.336.02-2.323Zm38.784 9.473c-2.015-.94-.558-4.074 1.46-3.133 2.016.941.56 4.074-1.46 3.133Zm7.734 1.7c-1.478-.689-.41-2.987 1.07-2.297s.41 2.987-1.07 2.297Zm-3.134 4.83c2.44 1.139.676 4.933-1.77 3.793-2.44-1.139-.675-4.934 1.77-3.793Zm7.705 1.136c1.342-3.21 5.637 1.82 1.745 2.48-1.6.586-2.586-1.21-1.745-2.48Zm-50.452-5.748c-2.474-.02-2.437-3.857.032-3.837 2.473.022 2.437 3.858-.032 3.837Zm-6.792-5.935c.194 1.38-1.329 2.48-2.422 1.362-2.96-2.08 2.578-4.548 2.422-1.362Zm13.233-4.658c2.042.018 2.012 3.186-.026 3.168-2.043-.017-2.013-3.185.026-3.168Z" fill="#FF4B33"/></g></g></g><g><g fill-rule="evenodd" clip-rule="evenodd"><path d="m640.021 1364.914-89.906 94.402 50.527 45.656 93.902-66.553" fill="#fff"/><path d="M600.643 1507.098a2.128 2.128 0 0 1-1.426-.549l-50.528-45.655a2.132 2.132 0 0 1-.114-3.045l89.906-94.402a2.126 2.126 0 1 1 3.08 2.933l-88.4 92.822 47.643 43.048 92.511-65.567a2.127 2.127 0 1 1 2.459 3.471l-93.902 66.552c-.37.262-.8.392-1.229.392" fill="#141414"/><path d="M565.329 1436.054c1-.315 2.073.197 2.459 1.173.368.931.818 2.114 1.349 3.51 3.252 8.548 10.018 26.337 19.317 41.41l.024.039c5.485 8.875 12.737 15.179 20.422 17.752.611.204 1.084.69 1.277 1.307 9.25 30.018 15.932 51.706 15.256 71.259-.119 3.437-1.78 16.59-7.729 18.17-2.75.73-5.47-1.044-8.083-5.271-9.539-15.435-30.178-48.633-48.387-77.923-14.734-23.7-27.458-44.168-32.229-51.887-.504-.815-.589-1.78-.24-2.717 2.031-5.455 26.247-13.582 36.564-16.822" fill="#bfa2db"/><path d="m521.706 1460.535 82.457 133.411a4.719 4.719 0 0 0 6.496 1.532l1.326-.819a4.72 4.72 0 0 0 1.534-6.496l-82.458-133.41a4.716 4.716 0 0 0-6.495-1.533l-1.327.819a4.72 4.72 0 0 0-1.533 6.496M610.526 1537.65a2.124 2.124 0 0 0 2.042.997c7.715-.846 9.627 5.509 9.818 6.237a2.135 2.135 0 0 0 2.589 1.523 2.121 2.121 0 0 0 1.533-2.572c-.929-3.701-5.139-10.431-14.404-9.415a2.125 2.125 0 0 0-1.578 3.23M605.009 1518.982a2.125 2.125 0 0 0 2.042.996c7.716-.846 9.627 5.51 9.818 6.237a2.133 2.133 0 0 0 2.589 1.523 2.122 2.122 0 0 0 1.533-2.572c-.932-3.703-5.142-10.431-14.404-9.415a2.126 2.126 0 0 0-1.578 3.231" fill="#141414"/></g><g fill-rule="evenodd" clip-rule="evenodd"><path d="m986.186 1508.399 18.821 84.545 74.537 7.768-10.008-108.594-83.35 16.281Z" fill="#fff"/><path d="M1080.873 1603.541a2.07 2.07 0 0 1-.208-.011l-76.02-7.856a2.128 2.128 0 0 1-1.896-1.809l-18.168-85.821a2.127 2.127 0 0 1 1.797-2.412 2.132 2.132 0 0 1 2.412 1.797l17.927 84.174 71.439 7.408-10.037-100.779a2.127 2.127 0 0 1 4.15-.929l10.679 103.646a2.124 2.124 0 0 1-2.075 2.592" fill="#141414"/><path d="M998.45 1586.86a2 2 0 0 1 2.291-1.476 321 321 0 0 1 3.694.699c8.981 1.728 27.67 5.325 45.381 5.339h.046c10.433 0 19.609-2.854 25.838-8.039a2.005 2.005 0 0 1 1.783-.398c30.397 7.914 52.36 13.632 68.636 24.487 2.861 1.909 13.177 10.237 11.393 16.127-.826 2.724-3.764 4.105-8.733 4.105-18.145 0-57.236.101-91.725.191-27.906.073-52.007.136-61.081.136-.958 0-1.824-.435-2.437-1.224-3.573-4.596 2.246-29.468 4.914-39.947" fill="#bfa2db"/><path d="M996.338 1636.838h156.837a4.719 4.719 0 0 0 4.719-4.719v-1.56a4.72 4.72 0 0 0-4.719-4.719H996.338a4.72 4.72 0 0 0-4.719 4.719v1.56a4.719 4.719 0 0 0 4.719 4.719M1108.633 1601.828c.795 0 1.557-.447 1.921-1.213 3.337-7.008 9.748-5.293 10.469-5.072a2.134 2.134 0 0 0 2.655-1.402 2.122 2.122 0 0 0-1.382-2.657c-3.636-1.154-11.574-1.112-15.581 7.303a2.126 2.126 0 0 0 1.918 3.041M1089.854 1596.706c.795 0 1.557-.447 1.921-1.213 3.338-7.008 9.749-5.293 10.468-5.072a2.133 2.133 0 0 0 2.656-1.402 2.123 2.123 0 0 0-1.382-2.657c-3.64-1.153-11.576-1.11-15.581 7.303a2.126 2.126 0 0 0 1.918 3.041" fill="#141414"/></g><path fill-rule="evenodd" clip-rule="evenodd" d="M802.653 908s-11.223 56.992-16.766 97.001c-5.543 40.009-16.464 77.096-32.333 112.569-40.717 91.014-165.261 220.349-165.261 220.349s39.68 72.457 125.742 142.507C904 1327 929 1087 929 1087c11.975 130.532 15.888 240.062 8.161 427.409 66.963 2.077 124.939-.881 179.249-25.6 7.788.106-23.997-390.492-97.41-581.809l-216.347 1Z" fill="#0B379B"/><path fill-rule="evenodd" clip-rule="evenodd" d="M523.854 31.809a2.126 2.126 0 0 1 4.205.635c-.099.663-2.532 16.438-9.537 32.72-9.413 21.883-22.667 33.937-38.341 34.894l-.232 1.216a504.57 504.57 0 0 1-.617 3.211c-4.028 20.738-8.759 41.33-14.118 61.755l-2.039 7.651a326.594 326.594 0 0 1-1.448 4.91c-.272.907-.544 1.814-.812 2.721l-1.14 3.814-.045.15c-.361 1.223-.721 2.445-1.164 3.64l-2.623 7.508-1.311 3.754c-.291.808-.61 1.605-.929 2.403-.173.432-.346.864-.514 1.298l-2.925 7.388c-.789 2.084-1.687 4.12-2.584 6.157l-.509 1.156-3.191 7.269c-8.74 19.281-18.844 37.888-29.713 55.997-21.736 36.236-46.375 70.616-72.577 103.682a1293.722 1293.722 0 0 1-40.521 48.613c-6.925 7.957-13.92 15.853-21.039 23.641-7.117 7.797-14.296 15.504-21.699 23.082a1.999 1.999 0 1 1-2.861-2.794l.002-.003.025-.025c29.411-29.995 57.145-61.791 83.291-94.736 13.073-16.483 25.737-33.29 37.85-50.482 12.096-17.201 23.711-34.748 34.41-52.837 10.699-18.082 20.618-36.634 29.158-55.794l3.113-7.22c.164-.382.33-.763.495-1.145.878-2.022 1.755-4.046 2.521-6.112l2.846-7.323c.164-.431.333-.861.502-1.29.31-.789.62-1.579.902-2.377l1.27-3.714 2.543-7.425c.421-1.163.764-2.349 1.107-3.535l.06-.208 1.098-3.764c.255-.886.515-1.77.774-2.654.477-1.622.953-3.245 1.406-4.879l1.982-7.63c7.2-28.14 13.23-56.614 17.668-85.3.176-.98.189-1.142.206-1.356.021-.262.048-.6.39-2.615a737.205 737.205 0 0 0 4.363-34.603l.002-.012a2.815 2.815 0 1 1 5.602.569l-.002.03c-2.036 18.078-4.826 36.036-8.151 53.885 33.29-3.294 42.757-63.302 42.851-63.916Zm54.227 98.519c.578 1.079 14.327 27.244 27.574 98.842 12.189 65.886 26.127 184.334 23.295 374.466a2 2 0 0 1-1.999 1.97h-.03a2 2 0 0 1-1.971-2.03c2.822-189.483-11.028-307.546-23.145-373.222-13.13-71.179-27.11-97.875-27.25-98.137a2 2 0 0 1 3.526-1.889Z" fill="#fff" fill-opacity=".5" style="mix-blend-mode:soft-light" transform="translate(368 907)"/><g fill-rule="evenodd" clip-rule="evenodd"><path d="M802.181 785.449c.004.336.013.658.016.997.058 5.705-.298 14.829-.918 25.786-9.026-.057-17.392-.68-21.567-2.483 5.196-7.274 13.747-16.081 22.469-24.3Zm244.608 133.401c-1.14-93.89 2.834-194.654-35.508-256.133-42.439-68.049-176.179-56.313-223.44-15.833-23.512 16.336-59.417 47.445-90.468 100.26-22.987 39.098-37.138 114.938-2.214 139.407 30.823 15.33 71.288 18.017 101.964 16.381a1096.379 1096.379 0 0 1-1.653 15.918h251.319Z" fill="#bfa2db"/><path d="M783.196 808.636c4.36-5.61 10.43-11.98 16.86-18.2-.08 5.12-.36 11.86-.78 19.63-6.42-.1-12.2-.51-16.08-1.43Zm15.65 108.09c.38-3.45.79-7.42 1.22-11.77 27.09-1.69 42.98-6.55 44.67-6.97 1.02-.26 1.7-1.22 1.6-2.27l-8.34-85.31a2.116 2.116 0 0 0-2.32-1.91c-6.74.63-20.03 1.56-32.14 1.6.54-9.99.84-18.31.79-23.67v-.06c14.49-13.59 29.29-25.47 29.53-25.66.92-.73 1.06-2.07.33-2.99a2.119 2.119 0 0 0-2.99-.33c-.91.73-13.63 10.93-26.97 23.23-1.4 1.28-2.8 2.59-4.19 3.91-8.09 7.68-15.99 15.83-21.19 22.82-10.86-2.85-19.35-8.54-19.45-8.6a2.125 2.125 0 0 0-2.38 3.52c.42.29 9.85 6.63 22.05 9.52 4.12 1.7 11.68 2.39 19.98 2.55 1.4.02 2.82.03 4.25.03 12.5-.02 25.61-1.02 30.67-1.45l7.95 81.38c-11.16 2.66-23.21 5.26-41.43 6.34-1.42.08-2.85.16-4.3.22-30.77 1.39-70.91-1.75-99.94-16.14-20.07-14.19-20.88-45.06-19.58-62.22 1.94-25.46 10.58-53.92 22.54-74.27 24.51-41.69 52.24-69.84 74.32-87.78 5.42-4.42 10.5-8.21 15.11-11.43 6.96-6.08 16.01-11.56 26.51-16.22 24.11-10.72 55.89-17.13 87.69-16.55 49.47.91 88.34 18.26 106.64 47.6 33.88 54.32 34.42 140.78 34.94 224.4.05 9.36.11 19.01.22 28.48h-245.79Zm214.241-255.13c-19.071-30.59-59.231-48.66-110.171-49.6-26.15-.48-53.34 3.7-76.55 11.77-16.25 5.65-29.81 12.97-39.62 21.27-4.14 2.89-8.68 6.23-13.52 10.08-20.72 16.45-51.02 45.59-77.69 90.95-24.33 41.4-37.06 117.38-1.6 142.23.09.06.18.11.28.16 26.56 13.21 57.13 17.07 83.76 17.07 4.74 0 13.35-.12 17.79-.34-.5 5.1-.98 9.64-1.41 13.43-.07.6.12 1.2.53 1.65.4.45.98.71 1.58.71h250.32c.57 0 1.12-.23 1.52-.63.39-.41.62-.95.61-1.52-.12-10.14-.19-20.55-.25-30.61-.52-84.2-1.06-171.28-35.579-226.62Z" fill="#141414"/><path d="m904.824 659.109 12.233 19.03-14.952 110.781 34.662 42.817 28.545-38.739-36.021-114.859 8.156-19.71-21.029-11.638-11.594 12.318Z" fill="#FFC81A"/><path d="m937.934 586.737 2.126 24.236c.347 14.352-21.831 39.428-21.831 39.428s-43.002-27.138-43.338-41.057l2.504-26.218" fill="#fff"/><path d="M918.229 652.528a2.12 2.12 0 0 1-1.134-.328c-4.5-2.84-43.976-28.17-44.329-42.804-.002-.085.001-.17.009-.254l2.504-26.218a2.134 2.134 0 0 1 2.32-1.915 2.127 2.127 0 0 1 1.915 2.319l-2.492 26.08c.142 2.943 3.118 9.9 20.957 23.996 8.215 6.49 16.499 12.022 19.844 14.205 1.911-2.268 5.848-7.095 9.721-12.775 6.901-10.122 10.494-18.33 10.393-23.744l-2.121-24.166a2.128 2.128 0 0 1 4.238-.373l2.126 24.237c.004.045.007.09.007.135.363 15.013-21.436 39.838-22.364 40.887a2.124 2.124 0 0 1-1.594.718" fill="#141414"/><path d="M939.165 610.289c-3.91 14.012-10.339 27.553-20.707 38.049-18.334-12.016-33.839-24.737-44.279-38.723-25.648 10.82 11.773 67.303 11.773 67.303s29.712-25.559 32.506-28.088c2.794 2.529 37.393 18.91 37.393 18.91s-.72-55.496-16.686-57.451" fill="#fff"/><path d="M921.462 648.273c4.768 2.761 18.736 9.661 32.182 16.065-.626-19.526-4.493-47.148-13.028-51.412-4.281 14.373-10.716 26.246-19.154 35.347m-47.921-35.982c-2.711 1.53-4.498 3.815-5.443 6.943-2.244 7.433.396 19.506 7.634 34.915 4.062 8.648 8.537 16.108 10.691 19.557 5.724-4.926 23.021-19.818 28.861-24.915-18.697-12.453-32.386-24.421-41.743-36.5m12.409 66.754a2.13 2.13 0 0 1-1.773-.952c-1.074-1.621-26.235-39.938-20.151-60.088 1.474-4.878 4.611-8.36 9.325-10.35a2.127 2.127 0 0 1 2.53.688c9.159 12.269 22.996 24.464 42.269 37.245 8.471-9.055 14.847-21.112 18.965-35.871a2.13 2.13 0 0 1 2.307-1.54c17.31 2.12 18.478 53.665 18.553 59.535a2.124 2.124 0 0 1-3.036 1.95c-5.241-2.482-29.412-13.976-36.301-18.155-6.219 5.447-30.191 26.069-31.301 27.024a2.126 2.126 0 0 1-1.387.514" fill="#141414"/><g><path d="M1076.792 868.93H863.965c-6.075 0-11-6.045-11-13.5 0-7.456 4.925-13.5 11-13.5h212.827c6.075 0 11 6.044 11 13.5 0 7.455-4.925 13.5-11 13.5" fill="#141414"/><path d="M1210.901 868.93h-210.675c-7.631 0-13.816-6.186-13.816-13.817V702.518c0-7.63 6.185-13.817 13.816-13.817h210.675c7.63 0 13.816 6.187 13.816 13.817v152.595c0 7.631-6.186 13.817-13.816 13.817" fill="#13D6C3"/><path d="M1131.472 780.292c0 11.928-9.109 19.46-21.456 19.46s-22.356-9.67-22.356-21.598c0-11.928 13.243-32.115 23.052-17.287 6.813 10.297 20.76 7.497 20.76 19.425" fill="#fff"/><path d="M1102.957 757.742c-.681 0-1.205.158-1.522.253-6.001 1.806-11.65 12.887-11.65 20.159 0 10.736 9.074 19.471 20.229 19.471 11.561 0 19.329-6.966 19.329-17.333 0-5.123-2.839-6.672-8.281-9.183-4.133-1.909-8.819-4.071-12.126-9.069-2.367-3.579-4.528-4.298-5.979-4.298m7.057 44.136c-13.499 0-24.483-10.642-24.483-23.724 0-8.975 6.548-21.786 14.678-24.231 2.632-.793 7.731-1.098 12.274 5.77 2.64 3.99 6.566 5.802 10.362 7.554 5.286 2.439 10.752 4.962 10.752 13.045 0 12.71-9.699 21.586-23.583 21.586" fill="#141414"/></g><g><path d="M836.102 813.725c16.005-3.238 53.615-8.164 87.054-12.272 62.445-7.673 67.043 33.195 50.873 27.705-10.775-3.659-17.674-2.805-25.894-3.277 9.055 1.441 13.169 7.364 10.803 11.124-3.318 5.272-25.849-4.205-50.511 8.583-21.894 11.353-49.354 28.841-65.795 31.424l-6.53-63.287Z" fill="#fff"/><path d="m838.418 815.437 6.093 59.05c11.805-2.642 28.741-12.031 45.153-21.13 6.234-3.457 12.123-6.721 17.786-9.657 15.656-8.118 30.398-7.551 40.152-7.178 3.972.152 8.913.341 9.538-.65.44-.7.444-1.539.011-2.493-.881-1.944-3.859-4.525-9.349-5.398a2.126 2.126 0 0 1-1.78-2.328 2.12 2.12 0 0 1 2.236-1.895c1.824.104 3.625.143 5.367.181 6.118.133 12.445.269 21.089 3.205 1.132.384 3.2.831 4.322-.498 1.097-1.299 1.304-4.271-.703-7.98-5.359-9.905-22.6-19.073-54.916-15.103-42.518 5.224-71.086 9.215-84.999 11.874m4.216 63.701a2.123 2.123 0 0 1-2.115-1.909l-6.531-63.286a2.127 2.127 0 0 1 1.694-2.303c13.215-2.674 42.559-6.811 87.216-12.298 16.172-1.989 29.879-.966 40.744 3.035 8.629 3.179 15.173 8.244 18.431 14.264 2.645 4.887 2.726 9.772.213 12.749-2.008 2.378-5.264 3.03-8.939 1.781-5.753-1.953-10.325-2.57-14.687-2.811 1.024.978 1.826 2.075 2.365 3.263 1.015 2.239.911 4.613-.286 6.514-1.932 3.071-6.454 2.897-13.3 2.635-9.308-.356-23.373-.898-38.031 6.703-5.611 2.91-11.474 6.16-17.682 9.602-17.788 9.861-36.182 20.059-48.762 22.035-.11.017-.22.026-.33.026" fill="#141414"/></g><g><path d="M1138.704 864.365c-.638-2.356-2.458-6.093-6.25-6.91-5.083-1.094-7.42 3.078-7.653 7.602a27.997 27.997 0 0 0-.844-2.637c-2.844-7.61-11.841-6.425-13.054-.801a21.575 21.575 0 0 0-.425 6.239c-1.546-4.905-5.585-8.863-10.109-7.624-3.387.928-5.285 4.236-5.163 8.73-1.16-2.349-3.314-4.172-5.821-4.468-3.918-.462-7.936 3.858-5.545 11.364 1.754 5.506 8.489 4.732 11.016 1.027a7.178 7.178 0 0 0 1.177-3.052 24.9 24.9 0 0 0 .905 2.537c2.297 5.45 11.767 4.972 13.658-.713.436-1.313.599-2.721.538-4.136.706 2.478 1.861 4.377 3.153 5.269 4.262 2.941 10.912 1.042 11.182-6.532.674 2.049 1.822 3.694 3.37 4.284 6.659 2.538 12.126-1.831 9.865-10.179" fill="#fff"/><path d="M1135.428 872.276c-1.391 1.195-3.481 1.313-5.734.321-1.443-.634-3.209-6.275-1.841-10.499.697-2.156 1.878-2.695 3.035-2.698.381 0 .759.057 1.116.134 3.22.693 4.435 4.607 4.647 5.387.866 3.201.409 5.951-1.223 7.355m-14.147 2.77c-1.598 1.246-3.978 1.245-5.788-.004-.837-.578-1.693-1.96-2.267-3.866a16.712 16.712 0 0 0-.651-3.691c-.11-1.66-.009-3.494.406-5.417.422-1.958 2.21-2.771 3.612-2.873a4.18 4.18 0 0 1 .302-.011c1.136-.002 3.734.41 5.069 3.981 2.056 5.502 1.801 9.944-.683 11.881m-12.705-.059c-.72 2.164-3.065 3.015-4.854 3.084-1.712.067-3.996-.555-4.826-2.525-1.763-4.187-2.069-8.226-.815-10.806.623-1.282 1.581-2.108 2.848-2.455 2.172-.593 3.918.649 5.006 1.795 1.104 1.166 1.927 2.669 2.449 4.267a20.8 20.8 0 0 0 .607 3.415c.035 1.129-.084 2.231-.415 3.225m-15.696 1.11c-.441 1.102-1.828 1.825-3.41 1.778-.839-.031-2.87-.351-3.606-2.661-.986-3.094-.787-5.794.544-7.408.647-.783 1.505-1.215 2.395-1.217.11 0 .221.006.331.019 1.539.182 2.521 1.325 3.07 2.251 1.238 2.082 1.522 5.125.676 7.238m47.875-12.288v-.001c-.455-1.679-2.367-7.25-7.854-8.432-3.665-.788-6.672.572-8.346 3.663-1.957-2.77-4.987-4.321-8.271-4.086-3.66.266-6.61 2.696-7.413 6.059-2.606-2.66-5.896-3.697-9.065-2.829-2.466.675-4.385 2.3-5.55 4.698-.2.413-.366.852-.516 1.3-1.195-.993-2.589-1.618-4.109-1.797-2.429-.286-4.862.728-6.503 2.715-2.269 2.751-2.749 6.908-1.316 11.406 1.063 3.338 3.938 5.491 7.503 5.62.115.005.23.006.345.006 2.664-.005 5.049-1.208 6.417-3.126 1.657 2.079 4.344 3.331 7.393 3.325.139 0 .278-.004.418-.009 3.6-.14 6.651-1.936 8.15-4.685.335.348.682.659 1.04.907 1.658 1.143 3.549 1.712 5.413 1.707a8.786 8.786 0 0 0 5.405-1.85c.705-.55 1.693-1.524 2.473-3.046.488.484 1.022.877 1.612 1.136 1.56.687 3.133 1.025 4.626 1.022 2.101-.005 4.05-.683 5.593-2.012 2.906-2.498 3.861-6.869 2.555-11.691" fill="#141414"/></g></g><g fill-rule="evenodd" clip-rule="evenodd"><path d="M964.837 537.187c-.4-6.868-3.98-9.946-7.676-10.102a190.292 190.292 0 0 0-1.078-6.385c-9.93-52.69-42.778-59.78-70.246-52.958-18.188 4.516-42.75 17.301-37.67 65.044-10.956-2.728-16.087 3.278-15.71 11.676.34 7.54 6.023 13.039 17.198 13.638 3.254 25.568 27.19 65.3 73.477 56.205 27.014-5.308 37.109-34.352 35.883-67.941 4.991-.836 6.074-4.871 5.822-9.177" fill="#fff"/><path d="M958.091 529.392c.641 4.78 1.1 9.64 1.35 14.49 1.561-1.25 2.16-3.29 1.961-6.66-.37-6.27-1.99-7.56-3.311-7.83Zm-81.03 74.1c12.62 9.1 27.511 12.06 44.24 8.77 21.611-4.25 42.79-30.7 31.37-91.27-1.24-6.59-2.87-12.59-4.879-17.99-2.92-6.19-6.241-8.88-10.241-10.39-4.362-1.645-6.375-.114-9.482 2.249-2.882 2.192-6.705 5.1-14.218 6.851-8.065 1.879-13.083-.228-18.393-2.458-4.499-1.89-9.207-3.866-16.157-3.582-13.794.57-17.034 11.814-19.945 21.914-1.438 4.99-2.795 9.7-5.305 12.706-2.139 2.55-4.049 3.564-5.936 4.255-.527.193-1.323.235-1.873.095-1.62-.4-3.12-.6-4.49-.6-2.35 0-4.3.59-5.74 1.77-2.1 1.72-3.16 4.73-3 8.48.32 6.95 5.9 11.22 15.31 11.73.96.05 1.75.78 1.88 1.74 1.7 13.38 9.76 33.38 26.86 45.73Zm80.431-78.15c7.22.28 7.74 8.81 7.899 11.65.22 3.7-.12 8.89-5.569 11.3-.07.03-.151.05-.231.069.67 31.791-8.65 62.151-37.509 67.821-4.701.929-9.26 1.39-13.68 1.39-12.4 0-23.69-3.63-33.68-10.84-10.66-7.693-17.99-18.183-22.603-28.404-1.888-.222-6.13-2.945-12.293-19.612-.02-.055-.04-.111-.058-.167a5.086 5.086 0 0 0-.059-.168c-6.523-2.41-10.389-7.281-10.688-13.909-.229-5.04 1.351-9.21 4.45-11.75.04-.033.085-.065.128-.098.031-.022.062-.045.091-.068-2.189-16.049-4.488-35.726.455-50.33 6.866-20.288 22.817-36.204 42.696-38.434 65.8-7.4 82.861 38.78 82.141 66.02-.075 2.74-.555 6.6-.954 9.806-.347 2.796-.633 5.095-.536 5.724Zm-117.108 17.542c0-2.216 1.022-4.013 2.284-4.013 1.263 0 2.285 1.797 2.285 4.013s-1.022 4.013-2.285 4.013c-1.262 0-2.284-1.797-2.284-4.013Z" fill="#141414"/></g><g><path fill-rule="evenodd" clip-rule="evenodd" d="M895.23 535.115c-.302-.024-.83-.062-1.275-.07-.355-.014-.716-.005-1.077.004l-.336.008c-.951.047-1.91.114-2.858.263-1.892.31-3.793.726-5.584 1.474-1.784.738-3.578 1.559-5.184 2.718-1.567.977-2.96 2.212-4.385 3.474l-.33.293-.094.083a1.267 1.267 0 0 1-1.875-1.681l.379-.54c.512-.732 1.03-1.472 1.615-2.16.184-.197.366-.398.548-.6.576-.636 1.156-1.276 1.819-1.833 1.68-1.538 3.618-2.826 5.683-3.858 2.07-1.024 4.284-1.803 6.57-2.224 1.143-.218 2.3-.371 3.47-.44.087-.001.174-.004.261-.007.5-.014 1-.029 1.51-.01.615.009 1.149.047 1.9.15a2.502 2.502 0 0 1-.53 4.974l-.226-.018Zm46.922 15.118c.159.12.31.233.442.325l.317.22a1.535 1.535 0 0 0 2.259-1.914c-.371-.793-.754-1.338-1.228-1.941a10.246 10.246 0 0 0-1.62-1.568 10.054 10.054 0 0 0-4.248-1.894c-1.575-.3-3.29-.196-4.811.35-1.54.519-2.838 1.454-3.87 2.512a2 2 0 0 0 2.49 3.092l.11-.068c.894-.556 1.768-.998 2.644-1.221.874-.246 1.749-.274 2.655-.158a9.353 9.353 0 0 1 2.715.908c.449.223.894.489 1.333.782.269.166.552.38.812.575Zm-59.796-1.084c-.578.72-1.057 1.395-1.513 2.302a1.383 1.383 0 0 0 2.298 1.506l.104-.125c.38-.455.91-1.03 1.43-1.466.532-.454 1.084-.87 1.668-1.194 1.167-.656 2.386-1.035 3.614-1.05.31 0 .606.012.929.05.121.018.245.03.368.04.21.02.418.04.615.09.648.097 1.235.304 1.786.53a5.424 5.424 0 0 1 1.454.866l.07.062c.178.157.354.311.496.482.08.086.146.175.21.26l.015.02.089.126.026.038c.014.024.023.038-.004-.025a2.27 2.27 0 0 0 4.146-1.85 4.677 4.677 0 0 0-.233-.453l-.033-.058a4.606 4.606 0 0 0-.188-.304l-.022-.033-.027-.041a8.454 8.454 0 0 0-1.664-1.782 9.95 9.95 0 0 0-2.684-1.508c-.944-.325-1.905-.557-2.846-.64a7.812 7.812 0 0 0-.95-.066c-.15-.005-.3-.01-.451-.018-.475-.007-.98.034-1.465.093-1.96.263-3.817 1.066-5.271 2.235a12.69 12.69 0 0 0-1.967 1.913Zm46.985-18.427c-.582.13-1.083.271-1.766.506a2.375 2.375 0 0 0 1.418 4.533l.182-.05a21.26 21.26 0 0 1 2.577-.546l1.378-.174 1.388-.089c1.854-.054 3.71.095 5.509.514 1.796.42 3.55 1.053 5.198 1.955 1.558.75 2.956 1.802 4.393 2.885l.002.001.399.3.103.078a1.369 1.369 0 0 0 1.902-1.936 42.673 42.673 0 0 0-1.042-1.275c-.1-.113-.195-.23-.292-.347-.257-.312-.514-.624-.828-.88a55.282 55.282 0 0 1-.505-.462c-.652-.602-1.311-1.21-2.072-1.692-1.817-1.346-3.933-2.295-6.115-2.942-2.184-.658-4.47-1.007-6.743-.966-1.136.024-2.273.076-3.4.264a24.43 24.43 0 0 0-1.686.323Zm-12.49 18.844c.135 2.178.38 4.351.944 6.221.15.454.318.898.507 1.253.184.356.416.634.537.701.247.18.734.502 1.193.788.474.3.98.623 1.495.992 1 .754 2.125 1.703 2.85 3.248.323.786.55 1.61.47 2.633-.076 1.005-.552 1.963-1.11 2.597-1.13 1.294-2.357 1.833-3.492 2.33a22.905 22.905 0 0 1-3.391 1.038 1.565 1.565 0 0 1-1.044-2.93l.008-.004c.324-.161.648-.316.967-.47a32.53 32.53 0 0 0 1.899-.959c.872-.466 1.67-1.04 1.982-1.485.155-.227.167-.337.179-.453.012-.1-.056-.395-.164-.635-.213-.513-.798-1.138-1.564-1.736a27.665 27.665 0 0 0-1.258-.94c-.118-.088-.235-.171-.354-.256-.354-.251-.725-.515-1.172-.932-.713-.689-1.06-1.4-1.335-2.062-.276-.668-.41-1.31-.526-1.943-.42-2.516-.173-4.885.313-7.168a1.045 1.045 0 0 1 2.065.151v.021Zm-15.485 34.81c5.161 2.93 26.404 2.38 33.147-1.885.595-2.033-.157-2.97-.157-2.97s-19.919 2.91-32.976 1.37c0 0-.434 2.647-.014 3.486Zm33.66-8.078c1.422-.283 2.724.217 3.483 1.332 3.08 7.059-6.68 18.559-20.697 18.494-9.314.487-20.609-5.175-21.09-11.597-.437-2.774 2.052-7.523 5.894-6.826 2.737.496 9.28.679 15.674.45 8.364-.293 16.334-1.778 16.722-1.85l.014-.003Z" fill="#141414"/></g></g></svg>