<svg width="19" height="19" viewBox="0 0 19 19" fill="none" xmlns="http://www.w3.org/2000/svg">
<g clip-path="url(#clip0_589_3758)">
<rect width="18.1828" height="18.1828" transform="translate(0 0.000488281)" fill="white"/>
<path d="M16.8369 0.000488281H1.3424C0.600176 0.000488281 0 0.586459 0 1.31093V16.8693C0 17.5938 0.600176 18.1833 1.3424 18.1833H16.8369C17.5791 18.1833 18.1828 17.5938 18.1828 16.8729V1.31093C18.1828 0.586459 17.5791 0.000488281 16.8369 0.000488281ZM5.39448 15.495H2.69546V6.8155H5.39448V15.495ZM4.04497 5.63291C3.17845 5.63291 2.47883 4.93329 2.47883 4.07032C2.47883 3.20734 3.17845 2.50773 4.04497 2.50773C4.90795 2.50773 5.60756 3.20734 5.60756 4.07032C5.60756 4.92974 4.90795 5.63291 4.04497 5.63291ZM15.4945 15.495H12.799V11.276C12.799 10.271 12.7813 8.97471 11.3962 8.97471C9.99346 8.97471 9.78038 10.0721 9.78038 11.205V15.495H7.08847V6.8155H9.67384V8.00165H9.70935C10.068 7.31979 10.9488 6.59887 12.2592 6.59887C14.9902 6.59887 15.4945 8.39585 15.4945 10.7326V15.495Z" fill="#4F4F4F"/>
</g>
<defs>
<clipPath id="clip0_589_3758">
<rect width="18.1828" height="18.1828" fill="white" transform="translate(0 0.000488281)"/>
</clipPath>
</defs>
</svg>
