<svg xmlns="http://www.w3.org/2000/svg" viewBox="0 0 839.15 137.53"><defs><style>.cls-1{isolation:isolate;}.cls-2{fill:#85a4b3;}</style></defs><title>Logo</title><g id="Layer_2" data-name="Layer 2"><g id="Layer_1-2" data-name="Layer 1"><g class="cls-1"><g class="cls-1"><path class="cls-2" d="M65.25,11A66.2,66.2,0,0,1,82.53,13.2a62.25,62.25,0,0,1,15.16,6.25,58.59,58.59,0,0,1,12.56,9.77,59.65,59.65,0,0,1,9.45,12.64,64.32,64.32,0,0,1,6,15,66.23,66.23,0,0,1,2.11,16.78,62,62,0,0,1-2.3,16.88A63.08,63.08,0,0,1,119,105.72a64.89,64.89,0,0,1-23.31,23,65.79,65.79,0,0,1-33.16,8.77,64.14,64.14,0,0,1-25.25-4.86,60.06,60.06,0,0,1-19.75-13.32A60.84,60.84,0,0,1,4.63,99.51,64.44,64.44,0,0,1,0,75,62.27,62.27,0,0,1,2.29,58.11,64.4,64.4,0,0,1,32.08,19.77,66,66,0,0,1,65.25,11ZM63.9,132.22a19.56,19.56,0,0,0,12.87-4.54,34.57,34.57,0,0,0,9.13-12.42,73.18,73.18,0,0,0,5.45-18.41,134.14,134.14,0,0,0,1.8-22.59,134.31,134.31,0,0,0-1.8-22.54A73.13,73.13,0,0,0,85.9,33.27a34.57,34.57,0,0,0-9.13-12.42A19.57,19.57,0,0,0,63.9,16.3,19.57,19.57,0,0,0,51,20.85,34.57,34.57,0,0,0,41.9,33.27a72.72,72.72,0,0,0-5.45,18.45,134.31,134.31,0,0,0-1.8,22.54,134.14,134.14,0,0,0,1.8,22.59,72.77,72.77,0,0,0,5.45,18.41A34.57,34.57,0,0,0,51,127.68,19.56,19.56,0,0,0,63.9,132.22Z"/><path class="cls-2" d="M234,132.4a1.81,1.81,0,0,1,1,.59,1,1,0,0,1,.23.85,1.51,1.51,0,0,1-.49.81,1.65,1.65,0,0,1-1.13.36H188.46a1.65,1.65,0,0,1-1.13-.36,1.45,1.45,0,0,1-.49-.81,1,1,0,0,1,.22-.85,1.84,1.84,0,0,1,1-.59,19.48,19.48,0,0,0,2.47-.58,12.9,12.9,0,0,0,3.6-1.71,11.61,11.61,0,0,0,3.29-3.42,10.48,10.48,0,0,0,1.44-5.81V82.09q-.09-3.78-.59-7.78A23.64,23.64,0,0,0,196.25,67,12.89,12.89,0,0,0,183.6,59.5q-5.22,0-8.1,2.07a12.69,12.69,0,0,0-4.27,5.13,19.51,19.51,0,0,0-1.71,6.53c-.22,2.31-.32,4.36-.32,6.16v41.49a10.48,10.48,0,0,0,1.44,5.81,11.58,11.58,0,0,0,3.28,3.42,13,13,0,0,0,3.6,1.71,19.51,19.51,0,0,0,2.48.58,1.81,1.81,0,0,1,1,.59,1,1,0,0,1,.23.85,1.51,1.51,0,0,1-.49.81,1.65,1.65,0,0,1-1.13.36H134.46a1.65,1.65,0,0,1-1.13-.36,1.45,1.45,0,0,1-.49-.81,1,1,0,0,1,.22-.85,1.84,1.84,0,0,1,1-.59,19.48,19.48,0,0,0,2.47-.58,12.9,12.9,0,0,0,3.6-1.71,11.61,11.61,0,0,0,3.29-3.42,10.48,10.48,0,0,0,1.44-5.81v-50a1.33,1.33,0,0,0-1.08-1.44,10.18,10.18,0,0,1-1.3-.27L140,68.5c-1-.24-1.85-.45-2.66-.63s-1.3-.3-1.48-.36c-.78-.18-1.19-.58-1.22-1.21S135,65.23,135.9,65a78.28,78.28,0,0,0,7.6-2.2q4.09-1.4,8.24-3.15t8-3.78a71.78,71.78,0,0,0,6.93-4.1,2.46,2.46,0,0,1,1.66-.45c.57.06.86.51.86,1.35V60.4a33.91,33.91,0,0,1,4.32-3.28A29.76,29.76,0,0,1,179,54.37a39.17,39.17,0,0,1,6.75-1.89,43.66,43.66,0,0,1,8.24-.72,40.51,40.51,0,0,1,12.37,1.62,25.09,25.09,0,0,1,8.28,4.32,19.07,19.07,0,0,1,5.05,6.21,30,30,0,0,1,2.52,7.29,46.29,46.29,0,0,1,.89,7.52q.13,3.73.14,7v35.19a10.48,10.48,0,0,0,1.44,5.81,11.58,11.58,0,0,0,3.28,3.42,13,13,0,0,0,3.6,1.71A19.51,19.51,0,0,0,234,132.4Z"/><path class="cls-2" d="M264.15,87.31q-1.44,0-1.44,1.53a66.57,66.57,0,0,0,1.62,15.75,29.94,29.94,0,0,0,4.72,10.76,18.6,18.6,0,0,0,7.74,6.16,27.22,27.22,0,0,0,10.76,2,31.8,31.8,0,0,0,8.32-1,36.89,36.89,0,0,0,6.35-2.29,34.57,34.57,0,0,0,4.41-2.48,18.53,18.53,0,0,1,2.52-1.53,1.62,1.62,0,0,1,2,.23c.48.51.48,1.27,0,2.29-.18.36-.59,1.07-1.22,2.12a26.71,26.71,0,0,1-2.74,3.64,39.34,39.34,0,0,1-4.5,4.32,34,34,0,0,1-6.44,4.14,41.29,41.29,0,0,1-8.55,3.11,44,44,0,0,1-10.75,1.21,44.62,44.62,0,0,1-16.29-2.83,34.2,34.2,0,0,1-12.47-8.24,37.2,37.2,0,0,1-8-13.14,50.51,50.51,0,0,1-2.83-17.46,47.38,47.38,0,0,1,3.51-18.81A42,42,0,0,1,250,63.06a39.58,39.58,0,0,1,27.54-11.3,36.3,36.3,0,0,1,12.37,1.94,32.62,32.62,0,0,1,9.27,5,30.63,30.63,0,0,1,6.48,6.93,44.24,44.24,0,0,1,4.14,7.6A36.07,36.07,0,0,1,312,80.38a30.17,30.17,0,0,1,.63,5.31,1.36,1.36,0,0,1-.59,1.26,3,3,0,0,1-1.57.36Zm-1-5.94q-.18,1.17,1.08,1.17l1.8,0,3.73-.14,4.73-.18,4.81-.18,4-.13a16.62,16.62,0,0,0,2.12-.14,5.72,5.72,0,0,0,3-1.26c1.05-.78,1.58-2.13,1.58-4a29.71,29.71,0,0,0-.72-6,25.64,25.64,0,0,0-2.3-6.48,17.18,17.18,0,0,0-4-5.17A8.74,8.74,0,0,0,277,56.62a8.12,8.12,0,0,0-4.86,1.49A13.42,13.42,0,0,0,268.6,62a25.71,25.71,0,0,0-2.47,5.26,55.62,55.62,0,0,0-1.62,5.63c-.42,1.83-.74,3.51-.95,5S263.22,80.59,263.16,81.37Z"/><path class="cls-2" d="M417.69,132.4a1.81,1.81,0,0,1,1,.59,1,1,0,0,1,.23.85,1.47,1.47,0,0,1-.5.81,1.62,1.62,0,0,1-1.12.36H384.75a2.53,2.53,0,0,1-1.58-.45,1.7,1.7,0,0,1-.58-1.44V125.2a.77.77,0,0,0-.45-.81.66.66,0,0,0-.81.27c-.54.66-1.44,1.7-2.7,3.11a25.29,25.29,0,0,1-5.18,4.23,35.18,35.18,0,0,1-8.1,3.69,36.39,36.39,0,0,1-11.29,1.57,38.13,38.13,0,0,1-12.6-1.89,29.62,29.62,0,0,1-15.8-12.51,39.76,39.76,0,0,1-4.05-8.73,50.54,50.54,0,0,1-2.07-9.18,68.47,68.47,0,0,1-.58-8.64A63.46,63.46,0,0,1,321.43,78a38.42,38.42,0,0,1,7.47-14.09,32.87,32.87,0,0,1,12.51-9,45.56,45.56,0,0,1,17.69-3.15,61.8,61.8,0,0,1,9.81.68A49.72,49.72,0,0,1,375.75,54a22.33,22.33,0,0,1,4.05,1.62c.9.51,1.41.79,1.53.85a.79.79,0,0,0,.85.18.64.64,0,0,0,.41-.63V19.54a1.33,1.33,0,0,0-1.08-1.44,10.52,10.52,0,0,1-1.31-.27l-2.56-.63c-1-.24-1.85-.45-2.66-.63s-1.3-.3-1.48-.36c-.78-.18-1.19-.58-1.22-1.21s.41-1.07,1.31-1.31a78.28,78.28,0,0,0,7.6-2.2q4.1-1.39,8.24-3.15t8-3.78a71.78,71.78,0,0,0,6.93-4.1A2.46,2.46,0,0,1,406,0c.57.06.86.51.86,1.35V120.88a10.48,10.48,0,0,0,1.44,5.81,11.58,11.58,0,0,0,3.28,3.42,13,13,0,0,0,3.6,1.71A19.51,19.51,0,0,0,417.69,132.4ZM382.5,81.46a43.06,43.06,0,0,0-.32-4.95,35.6,35.6,0,0,0-1.08-5.44A27.48,27.48,0,0,0,379,65.8a18.06,18.06,0,0,0-3.28-4.5,15.58,15.58,0,0,0-4.68-3.19,15,15,0,0,0-6.21-1.22,15.23,15.23,0,0,0-9.09,2.7A19.59,19.59,0,0,0,349.65,67a40,40,0,0,0-3.42,11.16,84.05,84.05,0,0,0-1.08,13.9c0,1.32,0,3.11,0,5.36a63.94,63.94,0,0,0,.54,7.24,57.48,57.48,0,0,0,1.58,7.83,24.66,24.66,0,0,0,3.15,7.11,17.16,17.16,0,0,0,5.31,5.18,14.84,14.84,0,0,0,8,2q6.12,0,9.81-2.25a16.6,16.6,0,0,0,5.67-5.49,19.43,19.43,0,0,0,2.61-6.88,38.38,38.38,0,0,0,.63-6.44Z"/><path class="cls-2" d="M466.28,51.76a43.45,43.45,0,0,1,17.06,3.29,40.5,40.5,0,0,1,13.37,9,41.48,41.48,0,0,1,8.73,13.45,43.7,43.7,0,0,1,3.15,16.56,41.53,41.53,0,0,1-3.42,16.74,44,44,0,0,1-40.68,26.46A43.42,43.42,0,0,1,447.43,134a40.25,40.25,0,0,1-13.36-9,41.3,41.3,0,0,1-8.73-13.41A43.24,43.24,0,0,1,422.19,95a41.43,41.43,0,0,1,3.41-16.69,44,44,0,0,1,40.68-26.51Zm-.89,80.73a10.67,10.67,0,0,0,7.51-3,22.56,22.56,0,0,0,5.31-8.14,54.14,54.14,0,0,0,3.2-12.11,101.4,101.4,0,0,0,0-29.52,54,54,0,0,0-3.2-12.1,22.61,22.61,0,0,0-5.31-8.15,11,11,0,0,0-15,0,23.06,23.06,0,0,0-5.35,8.15,51,51,0,0,0-3.2,12.1,105.26,105.26,0,0,0,0,29.52,51.1,51.1,0,0,0,3.2,12.11,23,23,0,0,0,5.35,8.14A10.69,10.69,0,0,0,465.39,132.49Z"/></g><g class="cls-1"><path class="cls-2" d="M613.61,132.4a1.87,1.87,0,0,1,1,.59,1,1,0,0,1,.22.85,1.45,1.45,0,0,1-.49.81,1.67,1.67,0,0,1-1.13.36H568.07a1.67,1.67,0,0,1-1.13-.36,1.51,1.51,0,0,1-.49-.81,1,1,0,0,1,.23-.85,1.78,1.78,0,0,1,1-.59,19.51,19.51,0,0,0,2.48-.58,13.11,13.11,0,0,0,3.59-1.71,11.61,11.61,0,0,0,3.29-3.42,10.48,10.48,0,0,0,1.44-5.81V82.09c-.06-2.52-.26-5.11-.58-7.78A23.66,23.66,0,0,0,575.85,67a12.83,12.83,0,0,0-12.64-7.52q-5.22,0-8.1,2.07a12.69,12.69,0,0,0-4.27,5.13,19.51,19.51,0,0,0-1.71,6.53c-.22,2.31-.32,4.36-.32,6.16v41.49a10.48,10.48,0,0,0,1.44,5.81,11.58,11.58,0,0,0,3.28,3.42,13.08,13.08,0,0,0,3.61,1.71,19.48,19.48,0,0,0,2.47.58,1.87,1.87,0,0,1,1,.59,1,1,0,0,1,.22.85,1.45,1.45,0,0,1-.49.81,1.67,1.67,0,0,1-1.13.36H514.07a1.67,1.67,0,0,1-1.13-.36,1.51,1.51,0,0,1-.49-.81,1,1,0,0,1,.23-.85,1.78,1.78,0,0,1,1-.59,19.51,19.51,0,0,0,2.48-.58,13.11,13.11,0,0,0,3.59-1.71,11.61,11.61,0,0,0,3.29-3.42,10.48,10.48,0,0,0,1.44-5.81v-50a1.33,1.33,0,0,0-1.08-1.44,10.18,10.18,0,0,1-1.3-.27l-2.57-.63c-1-.24-1.84-.45-2.66-.63s-1.3-.3-1.48-.36c-.78-.18-1.19-.58-1.22-1.21s.41-1.07,1.31-1.31a78.28,78.28,0,0,0,7.6-2.2q4.1-1.4,8.24-3.15t8-3.78a71.78,71.78,0,0,0,6.93-4.1,2.46,2.46,0,0,1,1.66-.45c.57.06.86.51.86,1.35V60.4a33.91,33.91,0,0,1,4.32-3.28,29.76,29.76,0,0,1,5.44-2.75,39.17,39.17,0,0,1,6.75-1.89,43.66,43.66,0,0,1,8.24-.72,40.67,40.67,0,0,1,12.38,1.62,25.19,25.19,0,0,1,8.28,4.32,19.16,19.16,0,0,1,5,6.21,29.15,29.15,0,0,1,2.51,7.29,46.35,46.35,0,0,1,.91,7.52q.14,3.73.13,7v35.19a10.48,10.48,0,0,0,1.44,5.81,11.58,11.58,0,0,0,3.28,3.42,13.08,13.08,0,0,0,3.61,1.71A19.48,19.48,0,0,0,613.61,132.4Z"/></g><g class="cls-1"><path class="cls-2" d="M697.76,126.73a2,2,0,0,1,2,.5,1.65,1.65,0,0,1,.09,2,12.65,12.65,0,0,1-1.76,2.34,13,13,0,0,1-3.23,2.52,21.62,21.62,0,0,1-5,2,26,26,0,0,1-6.89.81,17.89,17.89,0,0,1-9.23-2.2,12.77,12.77,0,0,1-5.17-5.09,1,1,0,0,0-1-.63,1.88,1.88,0,0,0-1.12.54c-.18.18-.74.68-1.67,1.49a22.56,22.56,0,0,1-4,2.61,34.45,34.45,0,0,1-6.16,2.52,27.79,27.79,0,0,1-8.28,1.12A35.27,35.27,0,0,1,632.92,135a25.14,25.14,0,0,1-8.82-5.8,21.49,21.49,0,0,1-4.87-8,27.92,27.92,0,0,1-1.48-8.87,20,20,0,0,1,4-12.42A24.14,24.14,0,0,1,632.15,92a33.45,33.45,0,0,1,7.16-1.93c2.48-.39,5-.8,7.42-1.22s4.87-.94,7.25-1.57a21.7,21.7,0,0,0,6.7-3.11,11.83,11.83,0,0,0,4.63-5.76,21.26,21.26,0,0,0,1.31-7.47,19.86,19.86,0,0,0-.77-5.53,15.39,15.39,0,0,0-2.16-4.64,11.52,11.52,0,0,0-3.24-3.15,7.32,7.32,0,0,0-4-1.17q-3.87,0-5.67,2a14.5,14.5,0,0,0-2.84,4.77Q646.91,66,646,69a13,13,0,0,1-2.88,5.17,10,10,0,0,1-4.19,2.57,15.46,15.46,0,0,1-4.9.85,10.88,10.88,0,0,1-4.32-.81,9.84,9.84,0,0,1-3.24-2.2,9.11,9.11,0,0,1-2-3.24,11.57,11.57,0,0,1-.67-3.92,12.71,12.71,0,0,1,1.35-5.58,12.92,12.92,0,0,1,4.81-5,30,30,0,0,1,9.32-3.64,65.58,65.58,0,0,1,14.85-1.4,62.6,62.6,0,0,1,17.06,2,29.9,29.9,0,0,1,11.52,5.89,22.54,22.54,0,0,1,6.48,9.59,38.78,38.78,0,0,1,2,13q0,8.73-.54,16.38t-.76,13.55a63.54,63.54,0,0,0,.22,9.72q.45,3.83,2.52,4.72a4.65,4.65,0,0,0,2.25.41A20.61,20.61,0,0,0,697.76,126.73ZM666.53,86.5a.7.7,0,0,0-.45-.72.66.66,0,0,0-.81.27c-.48.54-.92,1-1.3,1.53s-.92,1-1.58,1.71q-1.71,1.8-3.51,3.38t-3.6,3.19q-1.8,1.44-3.55,2.88a29.63,29.63,0,0,0-3.29,3.15,18,18,0,0,0-3.46,5.9,20,20,0,0,0-1.13,6.79,17.53,17.53,0,0,0,.72,4.91,13.23,13.23,0,0,0,2.2,4.41,11.46,11.46,0,0,0,3.79,3.15,11.67,11.67,0,0,0,5.53,1.21,9.29,9.29,0,0,0,5.26-1.35,10.25,10.25,0,0,0,3.16-3.24,13.66,13.66,0,0,0,1.57-3.82,14.33,14.33,0,0,0,.45-3Z"/></g><g class="cls-1"><path class="cls-2" d="M758.24,122q1.62-.81,2.34.18a1.76,1.76,0,0,1,.09,2.07,22.89,22.89,0,0,1-4.1,5.27,27,27,0,0,1-5.62,4.14,28.41,28.41,0,0,1-6.89,2.7,32,32,0,0,1-7.87.94,34.61,34.61,0,0,1-8.91-1.17,19.8,19.8,0,0,1-7.92-4.18,21.74,21.74,0,0,1-5.71-8.19q-2.22-5.18-2.21-13.19V60a.64.64,0,0,0-.72-.72h-2.34a7.38,7.38,0,0,1-2.65-.27,1.22,1.22,0,0,1-.5-1.17,4,4,0,0,1,1-2.47A3.14,3.14,0,0,1,708.83,54h2q.63,0,.63-.72V31.78q0-2,1.62-2.25c1.5-.3,3.1-.7,4.82-1.21s3.44-1.11,5.22-1.8,3.5-1.44,5.21-2.25A46.45,46.45,0,0,0,733,21.7a2.06,2.06,0,0,1,1.85-.18c.56.24.85.84.85,1.8V53.38q0,.63.72.63h16.92a7.42,7.42,0,0,1,2.65.27,1.22,1.22,0,0,1,.5,1.17,3.72,3.72,0,0,1-1.26,2.48,3.81,3.81,0,0,1-2.79,1.3H736.37a.56.56,0,0,0-.63.63v55.35a9.94,9.94,0,0,0,.86,4.28,9.73,9.73,0,0,0,2.25,3.15,8.72,8.72,0,0,0,3.24,1.93,11.41,11.41,0,0,0,3.73.63,22.36,22.36,0,0,0,7.2-1.12A37.56,37.56,0,0,0,758.24,122Z"/><path class="cls-2" d="M790.64,87.31q-1.44,0-1.44,1.53a66.57,66.57,0,0,0,1.62,15.75,29.94,29.94,0,0,0,4.72,10.76,18.6,18.6,0,0,0,7.74,6.16,27.22,27.22,0,0,0,10.76,2,31.8,31.8,0,0,0,8.32-1,36.89,36.89,0,0,0,6.35-2.29,34.57,34.57,0,0,0,4.41-2.48,18.53,18.53,0,0,1,2.52-1.53,1.62,1.62,0,0,1,2,.23c.48.51.48,1.27,0,2.29-.18.36-.59,1.07-1.22,2.12a26.71,26.71,0,0,1-2.74,3.64,39.34,39.34,0,0,1-4.5,4.32,34,34,0,0,1-6.44,4.14,41.29,41.29,0,0,1-8.55,3.11,44,44,0,0,1-10.75,1.21,44.62,44.62,0,0,1-16.29-2.83,34.2,34.2,0,0,1-12.47-8.24,37.2,37.2,0,0,1-8-13.14,50.51,50.51,0,0,1-2.83-17.46,47.38,47.38,0,0,1,3.51-18.81,42,42,0,0,1,9.18-13.72,39.58,39.58,0,0,1,27.54-11.3,36.3,36.3,0,0,1,12.37,1.94,32.62,32.62,0,0,1,9.27,5,30.63,30.63,0,0,1,6.48,6.93,44.24,44.24,0,0,1,4.14,7.6,36.07,36.07,0,0,1,2.21,7.11,30.17,30.17,0,0,1,.63,5.31,1.36,1.36,0,0,1-.59,1.26,3,3,0,0,1-1.57.36Zm-1-5.94q-.18,1.17,1.08,1.17l1.8,0,3.73-.14,4.73-.18L805.8,82l4-.13a16.62,16.62,0,0,0,2.12-.14,5.72,5.72,0,0,0,3-1.26c1.05-.78,1.58-2.13,1.58-4a29.71,29.71,0,0,0-.72-6,25.64,25.64,0,0,0-2.3-6.48,17.18,17.18,0,0,0-4-5.17,8.74,8.74,0,0,0-5.94-2.12,8.12,8.12,0,0,0-4.86,1.49A13.42,13.42,0,0,0,795.09,62a25.71,25.71,0,0,0-2.47,5.26A55.62,55.62,0,0,0,791,72.87c-.42,1.83-.74,3.51-1,5S789.71,80.59,789.65,81.37Z"/></g></g></g></g></svg>