<svg xmlns="http://www.w3.org/2000/svg" viewBox="0 0 586.51 83.14"><defs><style>.cls-1{fill:#132454;}.cls-2{fill:#85a4b3;}</style></defs><title>Logo</title><g id="Layer_2" data-name="Layer 2"><g id="Layer_1-2" data-name="Layer 1"><path class="cls-1" d="M254.31,80.2a11.07,11.07,0,0,1-1.38-.33,7,7,0,0,1-2-1,6.46,6.46,0,0,1-1.82-1.9,5.77,5.77,0,0,1-.8-3.22V54.25c0-1.2,0-2.49-.08-3.88a25.52,25.52,0,0,0-.5-4.17,15.68,15.68,0,0,0-1.4-4.05,10.63,10.63,0,0,0-2.8-3.45,14.05,14.05,0,0,0-4.6-2.4,22.76,22.76,0,0,0-6.87-.9,24.3,24.3,0,0,0-4.58.4,20.49,20.49,0,0,0-3.75,1.05,16.26,16.26,0,0,0-3,1.52,19.49,19.49,0,0,0-2.4,1.83V35.9q0-.7-.48-.75a1.39,1.39,0,0,0-.92.25,43.66,43.66,0,0,1-3.85,2.27q-2.16,1.13-4.45,2.1c-1.54.65-3.06,1.24-4.58,1.75a43.43,43.43,0,0,1-4.22,1.23c-.5.13-.75.37-.73.72s.24.58.68.68l.82.2c.45.1.94.21,1.48.35l1.42.35a4.73,4.73,0,0,0,.73.15.73.73,0,0,1,.6.8V73.8A5.77,5.77,0,0,1,204,77a6.37,6.37,0,0,1-1.83,1.9,6.82,6.82,0,0,1-2,1,10.52,10.52,0,0,1-1.37.33,1,1,0,0,0-.58.32.55.55,0,0,0-.12.48.87.87,0,0,0,.27.45,1,1,0,0,0,.63.2h25.1a.86.86,0,0,0,.9-.65.56.56,0,0,0-.13-.48,1,1,0,0,0-.57-.32,11.07,11.07,0,0,1-1.38-.33,7,7,0,0,1-2-1,6.46,6.46,0,0,1-1.82-1.9,5.77,5.77,0,0,1-.8-3.22v-23a25.21,25.21,0,0,1,.17-3.43,11.41,11.41,0,0,1,1-3.62,7,7,0,0,1,2.38-2.85,7.59,7.59,0,0,1,4.5-1.15,7.12,7.12,0,0,1,7,4.17,12.67,12.67,0,0,1,1.15,4c.18,1.49.29,2.93.33,4.33V73.8a5.77,5.77,0,0,1-.8,3.22,6.37,6.37,0,0,1-1.83,1.9,6.82,6.82,0,0,1-2,1,10.52,10.52,0,0,1-1.37.33,1,1,0,0,0-.58.32.55.55,0,0,0-.12.48.87.87,0,0,0,.27.45,1,1,0,0,0,.63.2h25.1a.86.86,0,0,0,.9-.65.56.56,0,0,0-.13-.48A1,1,0,0,0,254.31,80.2Z"/><path class="cls-1" d="M295.43,47.35a23.73,23.73,0,0,0-2.3-4.23,17.1,17.1,0,0,0-3.6-3.85,18.26,18.26,0,0,0-5.15-2.8,20.28,20.28,0,0,0-6.87-1.07,22,22,0,0,0-15.3,6.27,23.39,23.39,0,0,0-5.1,7.63,26.38,26.38,0,0,0-2,10.45,28.07,28.07,0,0,0,1.57,9.7,20.78,20.78,0,0,0,4.45,7.3,18.92,18.92,0,0,0,6.93,4.57,24.71,24.71,0,0,0,9,1.58,24.23,24.23,0,0,0,6-.68,22.86,22.86,0,0,0,4.75-1.72,18.66,18.66,0,0,0,3.58-2.3,23.63,23.63,0,0,0,2.5-2.4,14.84,14.84,0,0,0,1.52-2c.35-.58.58-1,.68-1.17.26-.57.26-1,0-1.28a.92.92,0,0,0-1.1-.12,9.5,9.5,0,0,0-1.4.85,18.88,18.88,0,0,1-2.36,1.34,19.08,19.08,0,0,1-3.53,1.28,18,18,0,0,1-4.62.55,15.24,15.24,0,0,1-6-1.1,10.37,10.37,0,0,1-4.3-3.43,16.7,16.7,0,0,1-2.62-6,37.32,37.32,0,0,1-.9-8.75c0-.57.26-.85.8-.85h25.75a1.74,1.74,0,0,0,.87-.2.74.74,0,0,0,.33-.7,16.82,16.82,0,0,0-.35-3A20.26,20.26,0,0,0,295.43,47.35Zm-11.9,4a3.23,3.23,0,0,1-1.67.7,9.23,9.23,0,0,1-1.18.07l-2.2.08-2.67.1-2.63.1-2.07.07h-1c-.47,0-.67-.22-.6-.65s.1-1.08.22-1.93.29-1.78.53-2.8a28.46,28.46,0,0,1,.9-3.12A14,14,0,0,1,272.53,41a7.59,7.59,0,0,1,2-2.15,4.5,4.5,0,0,1,2.7-.82,4.84,4.84,0,0,1,3.3,1.17,9.59,9.59,0,0,1,2.22,2.88,14.06,14.06,0,0,1,1.28,3.6,16.4,16.4,0,0,1,.4,3.35A2.64,2.64,0,0,1,283.53,51.35Z"/><path class="cls-1" d="M355.35,80.2a10.92,10.92,0,0,1-1.37-.33,7,7,0,0,1-2-1,6.63,6.63,0,0,1-1.83-1.9,5.85,5.85,0,0,1-.8-3.22V7.35c0-.47-.15-.72-.47-.75a1.4,1.4,0,0,0-.93.25,38.1,38.1,0,0,1-3.85,2.27c-1.42.75-2.91,1.45-4.45,2.1s-3,1.24-4.57,1.75q-2.08.72-4.23,1.23-.75.2-.72.72c0,.35.24.58.67.68l.83.2c.45.1.94.21,1.47.35l1.43.35a4.61,4.61,0,0,0,.72.15.73.73,0,0,1,.6.8V37.7a.36.36,0,0,1-.22.35.47.47,0,0,1-.48-.1l-.85-.48a12.88,12.88,0,0,0-2.25-.9,28.62,28.62,0,0,0-3.8-.85,34.19,34.19,0,0,0-5.45-.37A25.4,25.4,0,0,0,313,37.1a18.18,18.18,0,0,0-7,5,21.39,21.39,0,0,0-4.15,7.82,35.42,35.42,0,0,0-1.38,10.18,38.45,38.45,0,0,0,.33,4.8,28.73,28.73,0,0,0,1.15,5.1,22.26,22.26,0,0,0,2.25,4.85,17,17,0,0,0,3.6,4.1A16.56,16.56,0,0,0,313,81.8a21.09,21.09,0,0,0,7,1,19.91,19.91,0,0,0,6.28-.88,19.06,19.06,0,0,0,4.5-2,13.53,13.53,0,0,0,2.87-2.35c.7-.78,1.2-1.36,1.5-1.72a.37.37,0,0,1,.45-.15c.17.06.25.21.25.45v4.4a1,1,0,0,0,.33.8,1.43,1.43,0,0,0,.87.25h18.1a1,1,0,0,0,.63-.2A.81.81,0,0,0,356,81a.53.53,0,0,0-.12-.48A1,1,0,0,0,355.35,80.2ZM335.8,65.4a20.37,20.37,0,0,1-.35,3.57A10.55,10.55,0,0,1,334,72.8a9.19,9.19,0,0,1-3.15,3,10.35,10.35,0,0,1-5.45,1.25A8.28,8.28,0,0,1,321,76a9.78,9.78,0,0,1-3-2.87,14.27,14.27,0,0,1-1.75-3.95,32.2,32.2,0,0,1-.87-4.35,38.24,38.24,0,0,1-.3-4v-3a47.67,47.67,0,0,1,.6-7.73,22.49,22.49,0,0,1,1.9-6.2,11,11,0,0,1,3.4-4.12,9.14,9.14,0,0,1,8.45-.83A8.6,8.6,0,0,1,332,40.7a9.59,9.59,0,0,1,1.83,2.5A15.28,15.28,0,0,1,335,46.12a19.43,19.43,0,0,1,.6,3,22.94,22.94,0,0,1,.17,2.75Z"/><path class="cls-1" d="M397.23,42.22a22.6,22.6,0,0,0-7.42-5A24.91,24.91,0,0,0,363,42.52a24.53,24.53,0,0,0-5.2,7.65,23.32,23.32,0,0,0-1.9,9.28,24.26,24.26,0,0,0,1.75,9.22,23.26,23.26,0,0,0,4.85,7.45,22.19,22.19,0,0,0,7.43,5A23.85,23.85,0,0,0,379.35,83a24.48,24.48,0,0,0,17.4-7.08,24.12,24.12,0,0,0,5.2-7.62,22.87,22.87,0,0,0,1.9-9.3,24,24,0,0,0-1.75-9.2A22.7,22.7,0,0,0,397.23,42.22Zm-8.5,25.13A30,30,0,0,1,387,74.07a12.43,12.43,0,0,1-3,4.53,6.11,6.11,0,0,1-8.35,0,12.68,12.68,0,0,1-3-4.53,28.34,28.34,0,0,1-1.77-6.72,58.51,58.51,0,0,1,0-16.4,28.42,28.42,0,0,1,1.77-6.73,13,13,0,0,1,3-4.52,6.11,6.11,0,0,1,8.35,0,12.52,12.52,0,0,1,3,4.52A30.22,30.22,0,0,1,388.73,51,56.33,56.33,0,0,1,388.73,67.35Z"/><path class="cls-1" d="M462.23,80.2a10.92,10.92,0,0,1-1.37-.33,7,7,0,0,1-2-1A6.26,6.26,0,0,1,457,77a5.85,5.85,0,0,1-.8-3.22V54.25c0-1.2,0-2.49-.07-3.88a25.52,25.52,0,0,0-.5-4.17,16.61,16.61,0,0,0-1.4-4.05,10.63,10.63,0,0,0-2.8-3.45,14.05,14.05,0,0,0-4.6-2.4,22.83,22.83,0,0,0-6.88-.9,24.19,24.19,0,0,0-4.57.4,20.49,20.49,0,0,0-3.75,1.05,16.26,16.26,0,0,0-3,1.52,19.49,19.49,0,0,0-2.4,1.83V35.9c0-.47-.16-.72-.47-.75a1.4,1.4,0,0,0-.93.25A40.07,40.07,0,0,1,421,37.67c-1.43.75-2.92,1.45-4.45,2.1S413.5,41,412,41.52s-2.8.89-4.23,1.23q-.75.2-.72.72c0,.35.24.58.67.68l.83.2c.45.1.94.21,1.47.35l1.43.35a4.61,4.61,0,0,0,.72.15.73.73,0,0,1,.6.8V73.8A5.77,5.77,0,0,1,412,77a6.46,6.46,0,0,1-1.82,1.9,7.08,7.08,0,0,1-2,1,10.66,10.66,0,0,1-1.38.33,1,1,0,0,0-.57.32.59.59,0,0,0-.13.48.85.85,0,0,0,.28.45.94.94,0,0,0,.62.2h25.1a1,1,0,0,0,.63-.2.81.81,0,0,0,.27-.45.6.6,0,0,0-.12-.48,1,1,0,0,0-.58-.32,10.92,10.92,0,0,1-1.37-.33,7,7,0,0,1-2-1,6.26,6.26,0,0,1-1.83-1.9,5.85,5.85,0,0,1-.8-3.22v-23c0-1,.06-2.14.18-3.43a10.91,10.91,0,0,1,1-3.62,7,7,0,0,1,2.37-2.85,9.27,9.27,0,0,1,9,0,7.87,7.87,0,0,1,2.55,3,13.38,13.38,0,0,1,1.15,4c.18,1.49.29,2.93.32,4.33V73.8A5.77,5.77,0,0,1,442,77a6.46,6.46,0,0,1-1.82,1.9,7.08,7.08,0,0,1-2,1,10.66,10.66,0,0,1-1.38.33,1,1,0,0,0-.57.32.59.59,0,0,0-.13.48.85.85,0,0,0,.28.45.94.94,0,0,0,.62.2h25.1a1,1,0,0,0,.63-.2.81.81,0,0,0,.27-.45.6.6,0,0,0-.12-.48A1,1,0,0,0,462.23,80.2Z"/><path class="cls-1" d="M508,77.05a9.55,9.55,0,0,1-1.6.17A2.55,2.55,0,0,1,505.1,77c-.77-.34-1.23-1.21-1.4-2.63a36,36,0,0,1-.13-5.4q.14-3.27.43-7.52c.2-2.83.3-5.87.3-9.1a21.39,21.39,0,0,0-1.07-7.23,12.33,12.33,0,0,0-3.61-5.32,16.42,16.42,0,0,0-6.39-3.28,34.8,34.8,0,0,0-9.48-1.12,37.45,37.45,0,0,0-8.25.77,16.63,16.63,0,0,0-5.17,2,6.79,6.79,0,0,0-3.43,5.9,6.39,6.39,0,0,0,.38,2.17A4.88,4.88,0,0,0,468.4,48a5.4,5.4,0,0,0,1.8,1.23,6,6,0,0,0,2.4.45,8.48,8.48,0,0,0,2.73-.48,5.47,5.47,0,0,0,2.32-1.42,7.13,7.13,0,0,0,1.6-2.88c.33-1.11.69-2.19,1.08-3.22a8,8,0,0,1,1.57-2.65,4.66,4.66,0,0,1,5.38-.45,6.38,6.38,0,0,1,1.8,1.75,8.86,8.86,0,0,1,1.2,2.57A11.06,11.06,0,0,1,490.7,46a11.74,11.74,0,0,1-.72,4.15,6.65,6.65,0,0,1-2.58,3.2,11.84,11.84,0,0,1-3.73,1.72c-1.31.35-2.65.64-4,.88s-2.74.46-4.12.67a19.08,19.08,0,0,0-4,1.08,13.41,13.41,0,0,0-5.77,4.4,11.15,11.15,0,0,0-2.23,6.9,15.81,15.81,0,0,0,.82,4.92,11.79,11.79,0,0,0,2.71,4.45,14.09,14.09,0,0,0,4.9,3.23,19.63,19.63,0,0,0,7.47,1.25,15.21,15.21,0,0,0,4.6-.63,18.29,18.29,0,0,0,3.43-1.4,11.88,11.88,0,0,0,2.19-1.45c.52-.45.83-.72.93-.82a1,1,0,0,1,.63-.3.52.52,0,0,1,.57.35,7.08,7.08,0,0,0,2.87,2.82,9.89,9.89,0,0,0,5.13,1.23,14.42,14.42,0,0,0,3.82-.45,11.71,11.71,0,0,0,2.75-1.1,7.21,7.21,0,0,0,1.8-1.4,7,7,0,0,0,1-1.3.92.92,0,0,0,0-1.13A1.11,1.11,0,0,0,508,77.05ZM490.6,71.52a7.17,7.17,0,0,1-.25,1.67,7.47,7.47,0,0,1-.87,2.13,5.57,5.57,0,0,1-1.75,1.8,5.12,5.12,0,0,1-2.93.75,6.26,6.26,0,0,1-5.18-2.43A7.41,7.41,0,0,1,478.4,73a9.63,9.63,0,0,1-.4-2.72,11.88,11.88,0,0,1,.62-3.78,10.21,10.21,0,0,1,1.93-3.27,16.72,16.72,0,0,1,1.82-1.75c.66-.54,1.31-1.07,2-1.6l2-1.78c.67-.58,1.32-1.21,2-1.87a8.07,8.07,0,0,0,.88-1,9.28,9.28,0,0,1,.72-.85.37.37,0,0,1,.45-.15.38.38,0,0,1,.25.4Z"/><path class="cls-1" d="M541.55,74.4a20.92,20.92,0,0,1-2.9,1.17,12.35,12.35,0,0,1-4,.63,6.38,6.38,0,0,1-2.07-.35,4.82,4.82,0,0,1-1.8-1.08,5.47,5.47,0,0,1-1.73-4.12V39.9a.32.32,0,0,1,.27-.35h9.08a2.1,2.1,0,0,0,1.55-.73,2,2,0,0,0,.7-1.37c0-.34-.09-.55-.27-.65a4.11,4.11,0,0,0-1.48-.15h-9.4c-.27,0-.4-.12-.4-.35V19.6c0-.54-.16-.87-.47-1a1.14,1.14,0,0,0-1,.1A23.65,23.65,0,0,1,525,20.12c-1,.45-1.92.87-2.9,1.25s-2,.72-2.9,1-1.85.51-2.68.68c-.6.1-.9.51-.9,1.25v12c0,.26-.12.4-.35.4h-1.1a1.77,1.77,0,0,0-1.42.72,2.29,2.29,0,0,0-.58,1.38c0,.33.09.55.28.65a4.08,4.08,0,0,0,1.47.15h1.3a.35.35,0,0,1,.4.29.2.2,0,0,1,0,.11V68.1a18.83,18.83,0,0,0,1.23,7.32A12,12,0,0,0,520,80a11.07,11.07,0,0,0,4.4,2.33,19.17,19.17,0,0,0,5,.65,17.45,17.45,0,0,0,4.38-.53,15.73,15.73,0,0,0,3.82-1.5,14.68,14.68,0,0,0,3.13-2.3A12.6,12.6,0,0,0,543,75.7a1,1,0,0,0,0-1.15A1.14,1.14,0,0,0,541.55,74.4Z"/><path class="cls-1" d="M559.55,55.15H585.3a1.53,1.53,0,0,0,.87-.2.74.74,0,0,0,.33-.7,16.82,16.82,0,0,0-.35-3,18.85,18.85,0,0,0-1.23-4,23.73,23.73,0,0,0-2.3-4.23,17.1,17.1,0,0,0-3.6-3.85,18,18,0,0,0-5.15-2.8A20.28,20.28,0,0,0,567,35.35a22,22,0,0,0-15.3,6.27,23.39,23.39,0,0,0-5.1,7.63,26.38,26.38,0,0,0-2,10.45,28.07,28.07,0,0,0,1.57,9.7,20.78,20.78,0,0,0,4.45,7.3,18.92,18.92,0,0,0,6.93,4.57,24.71,24.71,0,0,0,9,1.58,24.23,24.23,0,0,0,6-.68,22.3,22.3,0,0,0,4.75-1.72,18.66,18.66,0,0,0,3.58-2.3,23.63,23.63,0,0,0,2.5-2.4,13.35,13.35,0,0,0,1.52-2c.35-.58.58-1,.68-1.17.27-.57.27-1,0-1.28a.92.92,0,0,0-1.1-.12,9.5,9.5,0,0,0-1.4.85,17.82,17.82,0,0,1-2.45,1.37,19.08,19.08,0,0,1-3.53,1.28,18,18,0,0,1-4.62.55,15.24,15.24,0,0,1-6-1.1,10.45,10.45,0,0,1-4.3-3.43,16.7,16.7,0,0,1-2.62-6,37.32,37.32,0,0,1-.9-8.75A.83.83,0,0,1,559.55,55.15Zm-.55-3.3c0-.44.11-1.08.22-1.93s.3-1.78.53-2.8a28.46,28.46,0,0,1,.9-3.12A15,15,0,0,1,562,41.07a7.59,7.59,0,0,1,2-2.15,4.57,4.57,0,0,1,2.7-.82,4.84,4.84,0,0,1,3.3,1.17,9.59,9.59,0,0,1,2.22,2.88,14.06,14.06,0,0,1,1.28,3.6,15.73,15.73,0,0,1,.4,3.35,2.62,2.62,0,0,1-.88,2.25,3.23,3.23,0,0,1-1.67.7,9.23,9.23,0,0,1-1.18.07l-2.2.08-2.67.1-2.63.1-2.07.07h-1c-.49.05-.69-.19-.62-.62Z"/><path class="cls-1" d="M192.33,30.89h0l-.52-1a33.81,33.81,0,0,0-5.25-7,32.88,32.88,0,0,0-7-5.42A35,35,0,0,0,171.14,14a35.88,35.88,0,0,0-5.34-1,40.24,40.24,0,0,0-4.26-.23h-1.75l-.77.05-1.24.1h0a37.52,37.52,0,0,0-6.22,1.1,36.52,36.52,0,0,0-8.67,3.6,36.1,36.1,0,0,0-12.95,12.8,35.61,35.61,0,0,0-3.6,8.45,34.5,34.5,0,0,0-1.28,9.37,36.72,36.72,0,0,0,1.18,9.33A35.62,35.62,0,0,0,129,64.9h0l.52,1a33.55,33.55,0,0,0,5.25,7,32.81,32.81,0,0,0,7,5.42,34.25,34.25,0,0,0,8.42,3.48,36.25,36.25,0,0,0,5.35,1,40.2,40.2,0,0,0,4.25.23h2.75c.65,0,1.32-.11,2-.19.51-.06,1-.13,1.52-.21a33.83,33.83,0,0,0,3.73-.78,36.26,36.26,0,0,0,21.67-16.4A34.81,34.81,0,0,0,195.1,57a34.11,34.11,0,0,0,1.28-9.37,36.72,36.72,0,0,0-1.18-9.33A34.56,34.56,0,0,0,192.33,30.89ZM177,50c-.1,0-.73,7.63-1.21,10.46a40.23,40.23,0,0,1-3,10.25,19.24,19.24,0,0,1-5.08,6.9,10.53,10.53,0,0,1-3.86,2.06,12,12,0,0,1-5.42.27,10.71,10.71,0,0,1-4.94-2.27l-.08-.06a19.45,19.45,0,0,1-5.07-6.9c-.47-1-.89-2.08-1.26-3.16-.22-.64-.43-1.31-.62-2a47,47,0,0,1-1.15-5.1q-.61-3.76-.86-7.58c-.09-1.61-.14-3.26-.14-5V45.82c.1,0,.73-7.62,1.21-10.45a40.76,40.76,0,0,1,3-10.25,19.36,19.36,0,0,1,5.08-6.9,10.61,10.61,0,0,1,3.91-2.07,12,12,0,0,1,5.37-.26,10.66,10.66,0,0,1,4.94,2.27l.08.06a19.42,19.42,0,0,1,5.07,6.9,30.57,30.57,0,0,1,1.26,3.16c.22.64.43,1.31.62,2a47,47,0,0,1,1.15,5.1,71.46,71.46,0,0,1,.86,7.58c.09,1.61.14,3.26.14,4.95Q177.06,49,177,50Z"/><path class="cls-2" d="M76.28,25.52,52.8,48.08,29.31,25.52A14.88,14.88,0,0,1,39.78,0,15.13,15.13,0,0,1,50.37,4.35L52.8,6.79l2.43-2.44a15.05,15.05,0,0,1,21.17,0,14.91,14.91,0,0,1,0,21.09Z"/><path class="cls-2" d="M74.72,75.63a33,33,0,0,1,7.44-10.91l3.71-3.6h0l13-12.62a22.12,22.12,0,0,0,.49-31.29h0L95.3,13l-3.07,7.5a32.85,32.85,0,0,1-7.45,10.92L81.07,35h0l-13,12.61A22.14,22.14,0,0,0,67.59,79l4.06,4.19Z"/><path class="cls-2" d="M30.88,75.63a32.91,32.91,0,0,0-7.45-10.91l-3.7-3.6h0L6.73,48.5a22.12,22.12,0,0,1-.49-31.29h0L10.3,13l3.1,7.42a33,33,0,0,0,7.44,10.92L24.55,35h0l13,12.61a22.13,22.13,0,0,1,.5,31.29h0L34,83.06Z"/></g></g></svg>