<svg width="18" height="18" viewBox="0 0 18 18" fill="none" xmlns="http://www.w3.org/2000/svg">
<g clip-path="url(#clip0_589_3764)">
<path d="M12.9762 0.0231934H10.043V11.8786C10.043 13.2911 8.91488 14.4515 7.51095 14.4515C6.10703 14.4515 4.97888 13.2911 4.97888 11.8786C4.97888 10.4913 6.08196 9.35613 7.43576 9.3057V6.32926C4.45241 6.37968 2.04568 8.82644 2.04568 11.8786C2.04568 14.9559 4.50254 17.4279 7.53603 17.4279C10.5695 17.4279 13.0263 14.9307 13.0263 11.8786V5.79952C14.1294 6.60672 15.4832 7.08597 16.9122 7.11121V4.13474C14.7061 4.05907 12.9762 2.24292 12.9762 0.0231934Z" fill="#4F4F4F"/>
</g>
<defs>
<clipPath id="clip0_589_3764">
<rect width="17.4047" height="17.4047" fill="white" transform="translate(0.595291 0.0231934)"/>
</clipPath>
</defs>
</svg>
