<svg width="19" height="19" viewBox="0 0 19 19" fill="none" xmlns="http://www.w3.org/2000/svg">
<g clip-path="url(#clip0_589_3759)">
<path d="M6.13073 16.4782C13.2118 16.4782 17.0859 10.7936 17.0859 5.86539C17.0859 5.70558 17.0822 5.54222 17.0749 5.38241C17.8285 4.85443 18.4789 4.20044 18.9955 3.45119C18.2936 3.75371 17.5484 3.95128 16.7853 4.03716C17.5888 3.5706 18.1904 2.83765 18.4786 1.97419C17.7227 2.40815 16.8961 2.71427 16.0342 2.87943C15.4534 2.28163 14.6855 1.88582 13.8493 1.75318C13.013 1.62055 12.155 1.75849 11.4077 2.14566C10.6605 2.53284 10.0658 3.1477 9.71544 3.89517C9.36512 4.64264 9.27873 5.48109 9.46963 6.2809C7.93911 6.20649 6.44182 5.82133 5.07482 5.15038C3.70782 4.47943 2.50162 3.53767 1.53443 2.38615C1.04285 3.2072 0.892432 4.17877 1.11373 5.1034C1.33504 6.02803 1.91146 6.83634 2.72585 7.36406C2.11445 7.34525 1.51645 7.18578 0.981249 6.89883V6.945C0.980701 7.80663 1.28819 8.64185 1.85143 9.3087C2.41468 9.97554 3.19893 10.4328 4.07087 10.6029C3.5045 10.753 2.91008 10.7749 2.3336 10.6668C2.57964 11.4078 3.05835 12.0559 3.70292 12.5207C4.34749 12.9854 5.12576 13.2436 5.92911 13.2593C4.56526 14.2971 2.88051 14.86 1.14621 14.8574C0.83865 14.8569 0.531389 14.8387 0.226074 14.8027C1.98794 15.8977 4.03746 16.4793 6.13073 16.4782Z" fill="#4F4F4F"/>
</g>
<defs>
<clipPath id="clip0_589_3759">
<rect width="18.7694" height="18.1828" fill="white" transform="translate(0.226074)"/>
</clipPath>
</defs>
</svg>
